<svg enable-background="new 0 0 48 48" height="400" viewBox="0 0 48 48" width="400" xmlns="http://www.w3.org/2000/svg"><path d="m44 24c0 11-9 20-20 20s-20-9-20-20 9-20 20-20 20 9 20 20z" fill="#ffca28"/><path d="m21 23c0 2.2-1.8 4-4 4s-4-1.8-4-4 1.8-4 4-4 4 1.8 4 4z" fill="#6d4c41"/><path d="m17 21.5c0 .8-.7 1.5-1.5 1.5s-1.5-.7-1.5-1.5.7-1.5 1.5-1.5 1.5.7 1.5 1.5z" fill="#fff"/><g fill="#b76c09"><path d="m24 37c-1.7 0-3-.5-3.9-1.4-1.1-1.1-1.1-2.5-1.1-2.6h2c0 .3.2 2 3 2 4.1 0 5-4 5-4.2l2 .4c-.4 2-2.4 5.8-7 5.8z"/><path d="m27.8 24.6-1.6-1.2c.1-.1 1.8-2.4 4.8-2.4s4.7 2.3 4.8 2.4l-1.6 1.2s-1.3-1.6-3.2-1.6-3.2 1.6-3.2 1.6z"/></g></svg>