<svg version="1.0" xmlns="http://www.w3.org/2000/svg"
 width="64" height="64" viewBox="0 0 64 64"
 preserveAspectRatio="xMidYMid meet">
<g transform="translate(0.000000,64.000000) scale(0.100000,-0.100000)"
fill="#000000" stroke="none">
<path d="M260 631 c-76 -25 -152 -94 -164 -148 -4 -17 -20 -43 -36 -58 -39
-37 -41 -85 -5 -120 13 -14 32 -25 42 -25 23 0 72 -72 53 -78 -26 -9 -93 -78
-107 -109 -7 -18 -13 -46 -13 -63 l0 -30 290 0 290 0 0 30 c0 17 -6 45 -13 63
-14 31 -81 100 -107 109 -19 6 30 78 53 78 10 0 29 11 42 25 35 34 34 83 -4
119 -15 15 -33 44 -39 65 -7 21 -21 46 -32 56 -25 22 -26 41 -3 54 27 15 8 24
-55 26 -31 2 -82 5 -112 8 -30 4 -66 3 -80 -2z m211 -201 c39 -20 57 -54 45
-85 -3 -9 -2 -13 4 -10 6 3 13 24 16 46 7 43 14 47 38 23 35 -34 9 -94 -40
-94 -17 0 -27 -8 -35 -27 -5 -14 -25 -44 -44 -65 -19 -21 -35 -44 -35 -51 1
-7 6 -4 15 6 13 18 15 18 47 3 18 -9 40 -22 49 -29 25 -18 59 -79 59 -103 0
-21 -4 -22 -115 -23 l-114 -1 -6 33 c-4 18 -5 45 -3 61 2 19 -3 32 -14 40 -27
17 -54 -5 -50 -40 2 -16 1 -43 -3 -61 l-6 -33 -114 1 c-111 1 -115 2 -115 23
0 24 34 85 59 103 9 7 31 20 49 29 32 15 34 15 48 -3 13 -17 14 -17 8 2 -4 11
-19 34 -35 50 -15 17 -32 42 -38 58 -8 19 -17 27 -35 27 -49 0 -75 60 -40 94
24 24 31 20 38 -23 3 -22 10 -43 16 -46 6 -3 7 1 4 10 -3 8 -3 26 0 40 6 21
12 25 47 25 64 0 172 29 204 54 29 23 30 23 43 5 7 -11 31 -28 53 -39z"/>
</g>
</svg>
