<svg version="1.0" xmlns="http://www.w3.org/2000/svg"
 width="32" height="32" viewBox="0 0 32 32"
 preserveAspectRatio="xMidYMid meet">
<g transform="translate(0.000000,32.000000) scale(0.100000,-0.100000)"
fill="#000000" stroke="none">
<path d="M100 298 c-19 -13 -40 -34 -46 -47 -7 -12 -17 -28 -23 -34 -21 -21
-13 -67 13 -76 36 -14 38 -35 5 -64 -18 -16 -29 -35 -29 -51 l0 -26 146 0 146
0 -6 27 c-4 16 -18 38 -32 51 -29 25 -26 57 6 65 25 7 36 35 22 56 -28 40 -52
93 -47 102 4 5 -2 9 -13 9 -11 0 -39 3 -63 6 -36 5 -50 1 -79 -18z m148 -88
c7 0 13 -10 13 -22 l2 -23 4 23 c5 26 18 29 27 6 4 -11 -8 -30 -35 -56 l-41
-40 30 -18 c27 -17 52 -48 52 -64 0 -3 -27 -6 -60 -6 -50 0 -60 3 -61 18 -3
40 -5 45 -16 49 -13 5 -17 -6 -13 -44 1 -22 -2 -23 -59 -23 -54 0 -61 2 -61
19 0 23 48 64 67 57 10 -4 11 -1 3 12 -17 30 -35 48 -53 55 -9 3 -17 15 -17
26 0 28 20 37 21 9 1 -15 3 -18 6 -6 3 11 19 18 51 23 26 3 58 12 72 20 21 11
27 11 41 -1 8 -8 21 -14 27 -14z"/>
</g>
</svg>
