<svg height="150" preserveAspectRatio="xMidYMid meet" viewBox="0 0 150 150" width="150" xmlns="http://www.w3.org/2000/svg"><path d="m490 1200c-81-21-117-39-155-80-28-29-30-37-33-123-2-51-8-102-14-114-9-18-6-39 12-100 12-43 29-90 36-105 18-36 18-92-1-108-8-7-19-26-23-43-9-33-13-36-87-67-80-34-96-42-163-79-56-32-62-38-62-68v-33h750c735 0 750 0 750 19 0 59-49 112-140 153-65 30-127 60-180 88-17 9-32 28-39 50-17 56-5 78 56 107 47 21 54 28 50 46-3 12-15 58-26 102s-21 105-21 135c-1 98-32 155-102 191-48 24-94 24-151-1-69-31-89-65-100-179-9-86-34-210-51-251-6-15 25-37 87-59 22-9 27-17 27-43 0-71-19-90-142-150-52-25-83-12-108 48-27 62-25 101 10 200 29 84 30 85 21 217l-9 132-53 47c-43 38-51 50-41 60 32 32 3 35-98 8z" transform="matrix(.1 0 0 -.1 0 150)"/></svg>