<svg version="1.0" xmlns="http://www.w3.org/2000/svg"
 width="64" height="64" viewBox="0 0 64 64"
 preserveAspectRatio="xMidYMid meet">
<g transform="translate(0.000000,64.000000) scale(0.100000,-0.100000)"
fill="#000000" stroke="none">
<path d="M185 506 c-43 -19 -52 -33 -59 -104 -4 -46 -2 -73 9 -99 23 -54 6
-84 -69 -119 -35 -17 -62 -36 -64 -46 -3 -17 17 -18 317 -18 332 0 336 0 311
40 -5 8 -37 28 -72 45 -51 25 -64 36 -66 57 -2 19 2 28 17 33 24 7 24 5 10 98
-12 79 -40 117 -83 117 -46 0 -66 -30 -82 -115 -7 -44 -14 -83 -14 -86 0 -3
11 -11 25 -17 32 -15 32 -27 -1 -57 -59 -55 -111 -13 -80 65 25 63 21 142 -9
178 -13 16 -22 32 -18 36 11 11 -41 6 -72 -8z"/>
</g>
</svg>
