<svg version="1.0" xmlns="http://www.w3.org/2000/svg"
 width="32" height="32" viewBox="0 0 32 32"
 preserveAspectRatio="xMidYMid meet">
<g transform="translate(0.000000,32.000000) scale(0.100000,-0.100000)"
fill="#000000" stroke="none">
<path d="M93 308 c-6 -7 -16 -38 -24 -68 -15 -65 -25 -80 -52 -80 -19 0 -19
-1 4 -23 32 -30 34 -50 6 -62 -15 -7 -23 -20 -25 -43 l-3 -32 70 0 70 0 -10
32 c-5 18 -9 47 -9 63 0 17 -4 35 -9 41 -4 5 -11 26 -14 47 -6 36 -4 38 28 37
3 0 16 11 28 25 20 24 24 25 42 11 27 -20 28 -101 2 -121 -11 -8 -14 -14 -7
-17 11 -3 3 -52 -17 -104 -4 -11 9 -14 71 -14 74 0 76 1 76 24 0 25 -41 66
-67 66 -10 0 -11 4 -3 19 22 43 7 154 -28 194 -18 21 -114 24 -129 5z"/>
</g>
</svg>
