<svg version="1.0" xmlns="http://www.w3.org/2000/svg"
 width="400" height="400" viewBox="0 0 400 400"
 preserveAspectRatio="xMidYMid meet">
<g transform="translate(0.000000,400.000000) scale(0.100000,-0.100000)"
fill="#000000" stroke="none">
<path d="M1805 3990 c-16 -4 -57 -13 -90 -21 -174 -38 -314 -127 -441 -280
-57 -69 -132 -245 -155 -364 -6 -33 -13 -138 -16 -232 -5 -184 4 -241 49 -305
17 -25 19 -39 13 -130 -7 -105 8 -376 24 -458 6 -25 17 -85 26 -135 9 -49 20
-108 25 -130 5 -22 12 -54 15 -71 4 -23 20 -41 61 -70 30 -21 65 -47 77 -57
12 -10 34 -26 50 -35 20 -12 27 -24 27 -45 0 -27 -13 -88 -28 -127 -3 -8 -6
-17 -7 -20 -5 -14 -25 -61 -45 -102 -17 -38 -28 -48 -53 -53 -18 -3 -51 -10
-74 -15 -24 -6 -64 -15 -90 -21 -27 -5 -64 -14 -83 -19 -44 -11 -142 -33 -265
-60 -22 -5 -78 -18 -125 -29 -47 -11 -110 -25 -140 -32 -83 -17 -138 -38 -169
-65 -16 -13 -34 -24 -40 -24 -6 0 -10 -3 -9 -8 2 -4 -10 -21 -26 -37 -69 -73
-158 -244 -196 -380 -6 -22 -15 -53 -20 -70 -5 -16 -20 -75 -35 -130 -14 -55
-33 -125 -41 -155 -32 -116 -35 -108 53 -191 44 -41 99 -84 122 -96 l43 -23
1756 0 1757 1 42 22 c49 26 203 155 203 171 0 10 -22 77 -40 121 -5 11 -16 43
-25 70 -45 131 -80 226 -96 257 -5 10 -9 23 -9 28 0 6 -10 32 -21 58 -147 324
-244 436 -403 465 -69 12 -105 19 -286 57 -85 18 -177 37 -205 42 -27 5 -68
13 -90 18 -74 15 -160 32 -183 35 -37 5 -30 -16 -68 210 -30 178 -30 169 6
201 86 75 108 104 114 146 4 24 11 61 16 83 17 71 46 398 55 610 6 157 9 172
34 227 51 109 65 293 36 457 -17 97 -34 161 -47 175 -4 6 -8 17 -8 26 0 20
-46 109 -96 184 -21 32 -44 67 -50 77 -6 10 -14 16 -17 12 -4 -3 -7 -1 -7 6 0
14 -30 48 -30 34 0 -4 -4 -3 -8 2 -20 28 -111 91 -187 128 -122 60 -209 77
-395 76 -85 0 -168 -4 -185 -9z m250 -708 c171 -111 377 -142 475 -71 41 30
42 30 62 12 27 -25 38 -47 97 -210 59 -163 58 -149 36 -493 -24 -378 -56 -616
-88 -656 -26 -34 -209 -190 -303 -260 -90 -67 -211 -128 -281 -143 -90 -18
-213 27 -411 153 -105 67 -338 231 -346 244 -7 12 -46 209 -67 337 -25 153
-35 439 -21 565 42 354 215 629 507 805 l57 34 112 -139 c83 -104 126 -148
171 -178z m486 -1754 c34 -191 35 -229 10 -284 -101 -222 -507 -346 -797 -245
-125 45 -263 158 -332 274 -31 52 -33 57 -18 79 26 40 76 170 92 240 l15 67
101 -66 c121 -79 233 -135 312 -158 83 -24 149 -15 261 39 81 38 270 169 305
211 7 8 15 13 18 11 2 -3 17 -78 33 -168z"/>
</g>
</svg>
