<svg version="1.0" xmlns="http://www.w3.org/2000/svg"
 width="64" height="64" viewBox="0 0 64 64"
 preserveAspectRatio="xMidYMid meet">
<g transform="translate(0.000000,64.000000) scale(0.100000,-0.100000)"
fill="#000000" stroke="none">
<path d="M204 609 c-63 -49 -87 -99 -87 -179 0 -72 10 -98 60 -152 l25 -26
-34 -7 c-35 -8 -128 -70 -128 -86 0 -6 -6 -7 -12 -3 -7 4 -10 4 -6 -1 4 -4 1
-17 -7 -29 -9 -11 -15 -43 -15 -73 l0 -53 320 0 320 0 0 52 c0 39 -6 61 -25
89 -32 45 -99 94 -143 104 l-34 7 25 26 c50 54 60 80 60 152 0 80 -24 130 -87
179 -36 29 -45 31 -116 31 -71 0 -80 -2 -116 -31z"/>
</g>
</svg>
