<svg version="1.0" xmlns="http://www.w3.org/2000/svg"
 width="100" height="100" viewBox="0 0 100 100"
 preserveAspectRatio="xMidYMid meet">
<g transform="translate(0.000000,100.000000) scale(0.100000,-0.100000)"
fill="#000000" stroke="none">
<path d="M374 979 c-70 -34 -121 -85 -156 -156 -65 -132 -47 -263 52 -375 44
-51 47 -58 24 -58 -34 0 -150 -68 -201 -118 -68 -67 -93 -123 -93 -208 l0 -64
500 0 500 0 0 64 c0 85 -25 141 -93 208 -51 50 -167 118 -201 118 -23 0 -20 7
24 58 67 75 94 149 88 240 -7 126 -82 239 -194 291 -61 29 -191 29 -250 0z"/>
</g>
</svg>
