<svg height="16" viewBox="0 0 48 48" width="16" xmlns="http://www.w3.org/2000/svg"><path d="m42 37c0 2.761719-2.238281 5-5 5h-26c-2.761719 0-5-2.238281-5-5v-26c0-2.761719 2.238281-5 5-5h26c2.761719 0 5 2.238281 5 5z" fill="#ff9800"/><path d="m18 33.5c0-1.9375-1.5625-3.5-3.5-3.5s-3.5 1.5625-3.5 3.5c0 1.929688 1.5625 3.5 3.5 3.5s3.5-1.570312 3.5-3.5z" fill="#fff"/><g fill="none" stroke="#fff" stroke-miterlimit="10" stroke-width="4"><path d="m11 23h1c7.40625 0 13 5.59375 13 13v1"/><path d="m11 13h1c12.714844 0 23 10.285156 23 23v1"/></g></svg>