<?xml version="1.0"?>
<svg height="32px" style="enable-background:new 0 0 20 32;" version="1.1" viewBox="0 0 20 32" width="20px" xml:space="preserve" xmlns="http://www.w3.org/2000/svg" >
    <g id="Layer_1" />
    <g id="map_x5F_pin_x5F_stroke">
        <g>
            <path d="M9.996,4c1.605,0,3.113,0.625,4.246,1.76C15.375,6.891,16,8.398,16,10s-0.625,3.109-1.73,4.213    c-0.168,0.166-2.238,2.225-4.273,5.441c-2.02-3.211-4.082-5.262-4.238-5.414C4.625,13.109,4,11.602,4,10s0.625-3.109,1.758-4.242    S8.314,4,9.996,4 M9.996,0C7.441,0,4.883,0.977,2.93,2.93c-3.906,3.904-3.906,10.236,0,14.141c0,0,7.066,6.93,7.066,14.93    c0-8,7.074-14.93,7.074-14.93c3.906-3.904,3.906-10.236,0-14.141C15.117,0.977,12.559,0,9.996,0L9.996,0z" style="fill:#4E4E50;" />
            <path d="M12,10c0,1.105-0.895,2-2.004,2C8.811,12,8,11.105,8,10s0.811-2,1.996-2C11.105,8,12,8.895,12,10z" style="fill:#4E4E50;" />
        </g>
    </g>
</svg>
