<svg fill="none" height="50" viewBox="0 0 35 50" width="35" xmlns="http://www.w3.org/2000/svg"><g fill="#0d0c22"><path d="m30.7512 11.6307-.0341-.0201-.0789-.0241c.0317.0269.0715.0424.113.0442z"/><path d="m31.2481 15.2031-.0381.0107z"/><path d="m30.7659 11.6253c-.0049-.0006-.0096-.0017-.0142-.0034-.0003.0032-.0003.0064 0 .0095.0052-.0007.0101-.0028.0142-.0061z"/><path d="m30.7515 11.6314h.0057v-.0036z"/><path d="m31.2178 15.1962.0575-.0328.0214-.012.0194-.0207c-.0365.0157-.0698.0379-.0983.0655z"/><path d="m30.8507 11.7088-.0562-.0535-.0382-.0208c.0205.0362.0544.0628.0944.0743z"/><path d="m16.715 46.3714c-.0449.0194-.0843.0498-.1144.0883l.0354-.0228c.0241-.022.0582-.0481.079-.0655z"/><path d="m24.9235 44.7473c0-.0508-.0248-.0414-.0187.1391 0-.0147.006-.0294.0086-.0434.0034-.0321.0061-.0636.0101-.0957z"/><path d="m24.0719 46.3714c-.0449.0194-.0842.0498-.1144.0883l.0355-.0228c.024-.022.0582-.0481.0789-.0655z"/><path d="m10.9344 46.7574c-.0341-.0297-.0758-.0492-.1204-.0562.0361.0174.0722.0348.0963.0481z"/><path d="m9.63391 45.5042c-.00532-.0527-.02149-.1037-.04748-.1498.01841.048.03382.0972.04615.1471z"/></g><path d="m18.3715 23.0976c-1.7858.7689-3.8124 1.6406-6.4389 1.6406-1.0987-.0022-2.19211-.1538-3.25047-.4507l1.81657 18.7569c.0643.784.4194 1.515.9948 2.0479.5754.5328 1.329.8285 2.1112.8284 0 0 2.5757.1345 3.4351.1345.925 0 3.6987-.1345 3.6987-.1345.782 0 1.5355-.2958 2.1108-.8287.5752-.5328.9302-1.2637.9945-2.0476l1.9457-20.7271c-.8695-.2986-1.747-.497-2.7362-.497-1.7109-.0007-3.0893.5919-4.6818 1.2773z" fill="#fd0"/><path d="m3.05859 15.095.03077.0288.02007.012c-.01546-.0153-.0325-.029-.05084-.0408z" fill="#0d0c22"/><path d="m34.1896 13.3639-.2736-1.3877c-.2454-1.245-.8026-2.42152-2.0734-2.87152-.4073-.14395-.8694-.20583-1.1818-.50382-.3123-.29798-.4046-.76077-.4769-1.18992-.1337-.78768-.2595-1.57602-.3966-2.36235-.1184-.67602-.212-1.43544-.5203-2.05563-.4013-.83274-1.234-1.31974-2.062-1.64194-.4243-.15929-.8573-.29404-1.2969-.403594-2.0687-.548884-4.2437-.75068-6.3719-.8657032-2.5545-.1417607-5.1158-.0990502-7.6642.1278032-1.89675.173545-3.89455.383413-5.69705 1.043284-.65879.24148-1.33765.53139-1.83861 1.04328-.61465.62893-.8153 1.60159-.36652 2.3859.31904.55696.85945.95046 1.43264 1.21077.7466.33542 1.52631.59065 2.32619.76145 2.2272.49507 4.53395.68947 6.80935.7722 2.5219.10237 5.0479.01941 7.5578-.24821.6207-.06861 1.2402-.1509 1.8587-.24686.7283-.11233 1.1958-1.07019.9811-1.73746-.2568-.79777-.947-1.10719-1.7276-.98678-.115.01816-.2294.03498-.3444.05179l-.0829.01211c-.2644.03363-.5289.06502-.7933.09417-.5462.0592-1.0937.10763-1.6426.14529-1.2293.0861-2.462.12579-3.694.12781-1.2105 0-2.4218-.03431-3.6297-.11435-.5511-.03633-1.1009-.08252-1.6493-.13857-.2495-.02623-.4983-.05381-.7471-.08475l-.2368-.03027-.0515-.0074-.2454-.03565c-.50167-.07601-1.00329-.16346-1.49956-.26906-.05008-.01118-.09487-.0392-.12698-.07943-.0321-.04024-.0496-.09029-.0496-.14188 0-.05158.0175-.10163.0496-.14187.03211-.04023.0769-.06825.12698-.07943h.00936c.43006-.09215.86346-.17085 1.2982-.23946.1449-.02287.2903-.04529.4361-.06727h.004c.2722-.01816.5458-.06726.8166-.09955 2.3568-.24654 4.7275-.33059 7.0956-.25157 1.1498.03363 2.2988.10157 3.4432.21861.2461.02556.4909.05247.7357.08274.0936.01143.1879.02488.2822.03632l.19.02758c.5538.08296 1.1047.18363 1.6527.30202.8119.17758 1.8546.23543 2.2158 1.13005.115.28386.1672.59934.2307.89732l.081.38005c.0021.00682.0037.01379.0047.02085.1912.89687.3828 1.79374.5745 2.69061.014.06626.0144.13471.001.2011-.0135.06639-.0403.12928-.079.18476s-.0883.10235-.1457.13769c-.0575.03534-.1216.05839-.1883.06771h-.0054l-.117.01615-.1157.01547c-.3665.04798-.7335.09282-1.1009.13453-.7237.08296-1.4485.15471-2.1744.21525-1.4424.12063-2.8878.19978-4.336.23744-.7379.01973-1.4757.02893-2.2132.02758-2.9355-.00233-5.8684-.17391-8.78437-.5139-.31569-.03767-.63138-.07803-.94706-.11906.24479.03161-.17791-.02422-.26352-.03633-.20065-.02825-.4013-.05762-.60195-.08811-.67351-.10157-1.34301-.22669-2.01519-.33633-.81262-.13453-1.5898-.06727-2.32485.33633-.60336.33205-1.09169.84125-1.399859 1.45961-.317025.6592-.41133 1.377-.553122 2.0853s-.3625065 1.4704-.2789027 2.1975c.1799157 1.5693 1.2707737 2.8447 2.8398537 3.1299 1.47611.269 2.96024.487 4.44839.6726 5.84578.7201 11.75158.8062 17.61568.257.4775-.0449.9544-.0937 1.4306-.1467.1487-.0164.2992.0008.4405.0505.1413.0496.2697.1304.3759.2364.1062.1061.1874.2346.2378.3763s.0686.293.0534.4427l-.1485 1.4516c-.2992 2.9332-.5984 5.8662-.8976 8.7989-.3121 3.0799-.6262 6.1595-.9424 9.2389-.0891.8673-.1783 1.7343-.2675 2.6011-.0856.8536-.0976 1.7341-.2588 2.5776-.2542 1.3265-1.1471 2.1411-2.45 2.4391-1.1936.2732-2.413.4166-3.6371.4278-1.357.0074-2.7134-.0531-4.0705-.0457-1.4486.008-3.223-.1265-4.3413-1.2108-.98254-.9525-1.11831-2.4438-1.25208-3.7332-.17835-1.7072-.35515-3.4142-.53038-5.1209l-.98318-9.4905-.63606-6.1406c-.0107-.1016-.0214-.2018-.03143-.3041-.07625-.7325-.59191-1.4495-1.40454-1.4125-.69559.0309-1.48614.6255-1.40455 1.4125l.47153 4.5525.97515 9.4172c.27779 2.6749.55491 5.3502.83136 8.0261.05351.5125.10366 1.0264.15985 1.539.30565 2.8009 2.43253 4.3103 5.06643 4.7355 1.5383.2488 3.114.3 4.6751.3255 2.0011.0323 4.0223.1097 5.9907-.2549 2.9168-.5381 5.1052-2.4969 5.4175-5.5353.0892-.8771.1784-1.7545.2675-2.6321.2966-2.9022.5926-5.8047.8882-8.7074l.9672-9.4844.4434-4.3467c.0221-.2155.1126-.4182.2581-.578s.3383-.2682.5499-.3092c.834-.1635 1.6312-.4427 2.2245-1.081.9444-1.0164 1.1323-2.3415.7986-3.6774zm-31.37418.9377c.01271-.0061-.0107.1036-.02073.1547-.00201-.0774.00201-.146.02073-.1547zm.08093.6296c.00669-.0047.02675.0222.04749.0545-.03144-.0296-.0515-.0518-.04816-.0545zm.07959.1056c.02876.0491.04415.08 0 0zm.15985.1305h.00401c0 .0047.00736.0094.01004.0141-.00444-.0052-.00936-.0099-.01471-.0141zm27.99191-.1951c-.2997.2866-.7511.4198-1.1972.4864-5.0029.7466-10.0786 1.1246-15.1363.9578-3.6197-.1244-7.20133-.5287-10.78492-1.0379-.35113-.0498-.7317-.1143-.97314-.3747-.45481-.491-.23142-1.4798-.11304-2.0731.10835-.5435.31569-1.2679.95844-1.3453 1.00324-.1184 2.16835.3074 3.16089.4588 1.19497.1834 2.39441.3302 3.59827.4406 5.138.4708 10.3622.3975 15.4774-.2913.9324-.126 1.8614-.2724 2.787-.4392.8247-.1487 1.739-.4279 2.2373.4311.3417.5852.3872 1.3682.3344 2.0294-.0163.2881-.1414.5591-.3498.7574z" fill="#0d0c22"/></svg>