<svg height="50" viewBox="0 0 35 50" width="35" xmlns="http://www.w3.org/2000/svg"><path d="m43.4 75.2c-2.7 0-4.8-2.4-4.8-5.3v-31.4c0-2.9 2.2-5.3 4.8-5.3h76.4c2.7 0 4.8 2.4 4.8 5.3v31.5c0 2.9-2.2 5.3-4.8 5.3h-76.4z" fill="#feffff"/><path d="m119.8 34.2c2.1 0 3.8 1.9 3.8 4.3v31.5c0 2.3-1.7 4.3-3.8 4.3h-76.4c-2.1 0-3.8-1.9-3.8-4.3v-31.5c0-2.3 1.7-4.3 3.8-4.3zm0-2h-76.4c-3.2 0-5.8 2.8-5.8 6.3v31.5c0 3.5 2.6 6.3 5.8 6.3h76.4c3.2 0 5.8-2.8 5.8-6.3v-31.5c0-3.5-2.6-6.3-5.8-6.3z" fill="#dedad6"/><circle cx="59.3" cy="54.2" fill="#29abe0" r="12.9"/><path d="m64.1 48.3h1.3c2.5 0 4.5 2 4.5 4.5v.2c0 2.5-2 4.5-4.5 4.5h-1.3v1.3c0 1.1-.9 2.1-2.1 2.1h-9.7c-1.1 0-2.1-.9-2.1-2.1v-9.5c0-.6.5-1 1-1zm0 2.4v4.4h1.2c1.2 0 2.2-1 2.2-2.2s-1-2.2-2.2-2.2z" fill="#fff"/><path d="m56.9 52.5c.3-.9 1.1-1.4 2.3-1.4 1.8 0 2.4 2.2 1.5 3.7-.6 1-1.9 2.2-3.8 3.7-1.9-1.5-3.1-2.7-3.8-3.7-.9-1.4-.3-3.7 1.5-3.7 1.2 0 2 .5 2.3 1.4z" fill="#ff5e5b"/><path d="m88 58.9c.1.1.1.2.2.3 0 .1.1.2.1.4 0 .3-.1.6-.4.8-.2.2-.5.3-.8.3-.2 0-.3 0-.4-.1s-.3-.2-.4-.3l-3.8-5-1.7 1.6v2.8c0 .3-.1.6-.3.8s-.5.3-.8.3-.6-.1-.8-.3-.3-.5-.3-.8v-10.3c0-.3.1-.6.3-.8s.5-.3.8-.3c.6 0 1 .4 1.1 1v.1 4.8l5.6-5.6c.2-.2.5-.4.9-.4.3 0 .5.1.7.3s.3.4.3.7-.1.5-.3.7l-4 3.7zm10.6-2.9c0 .9-.2 1.8-.6 2.5s-1 1.3-1.7 1.7c-1.5.8-3.3.8-4.9 0-.7-.4-1.3-1-1.7-1.7-.8-1.6-.8-3.5 0-5.1.4-.7 1-1.3 1.7-1.7 1.5-.8 3.3-.8 4.9 0 .7.4 1.3 1 1.7 1.7.4.8.6 1.7.6 2.6zm-2.1 0c0-.5-.1-1.1-.4-1.5-.2-.4-.6-.8-1-1-.8-.5-1.9-.5-2.7 0-.4.3-.7.6-1 1-.2.5-.4 1-.4 1.5s.1 1.1.4 1.5c.2.4.6.8 1 1 .8.5 1.9.5 2.7 0 .4-.3.7-.6 1-1 .2-.5.4-1 .4-1.5zm4.7.3c-.3 0-.6-.1-.8-.3s-.3-.5-.3-.8.1-.5.3-.7.5-.3.8-.3h3.1c.6 0 1.1.5 1.1 1 0 .3-.1.5-.3.7s-.5.3-.8.3zm10.7-6.8c-.3 0-.6.1-.8.3s-.2.5-.2.7v.8h1.6c.3 0 .5.1.7.3.4.4.4 1 0 1.4-.2.2-.4.3-.7.3h-1.6v6.2c0 .3-.1.6-.3.8-.4.4-1.1.4-1.5 0-.2-.2-.3-.5-.3-.8v-6.2h-1c-.3 0-.5-.1-.7-.3-.4-.4-.4-1 0-1.4.2-.2.4-.3.7-.3h1v-.8c0-.8.3-1.6.9-2.2.7-.6 1.7-.9 2.6-.8.4 0 .8.1 1.1.3s.5.5.5.8-.1.5-.2.7c-.2.2-.4.3-.6.3-.1 0-.1 0-.2 0s-.1 0-.2 0c-.4-.1-.6-.1-.8-.1zm4.8 10.1c0 .3-.1.6-.3.8-.4.4-1.1.4-1.5 0-.2-.2-.3-.5-.3-.8v-7.3c0-.3.1-.6.3-.8.4-.4 1.1-.4 1.5 0 .2.2.3.5.3.8zm-1.1-9.5c-.3 0-.6 0-.8-.2s-.3-.4-.2-.7v-.3c0-.3.1-.5.3-.7.5-.3 1.2-.3 1.7 0 .2.2.3.4.2.7v.3c0 .3-.1.5-.3.7-.3.2-.6.2-.9.2z" fill="#434b57"/></svg>