<svg height="100" viewBox="0 0 64 64" width="100" xmlns="http://www.w3.org/2000/svg"><path d="m61 59.378906c0 .554688-.449219 1-1 1h-56c-.550781 0-1-.445312-1-1v-8c.023438-3.574218 2.078125-6.824218 5.300781-8.378906l14.070313-6.730469c2.550781 3.210938 5.910156 5.5 9.628906 5.5s7.078125-2.289062 9.628906-5.5l14.070313 6.730469c3.230469 1.558594 5.289062 4.824219 5.300781 8.410156z" fill="#c2cde7"/><path d="m57 56h-50c-2.210937 0-4 1.789063-4 4 0 .550781.449219 1 1 1h56c.550781 0 1-.449219 1-1 0-2.210937-1.789062-4-4-4z" fill="#acb7d0"/><path d="m19.070313 28.128906c-.308594 0-1.308594-.820312-1.832032-2.769531-.519531-1.949219-.046875-3.269531.191407-3.328125 0 0 1.898437-.332031 1.921875-.710937.023437-.546875.082031-1.089844.179687-1.628907.054688-.578125.027344-1.160156-.082031-1.730468-.261719-1.800782-.308594-3.628907-.128906-5.441407.339843-3.378906 2.320312-5.390625 5.308593-5.390625.226563 0 .449219-.074218.632813-.207031 2.023437-1.257812 4.355469-1.921875 6.738281-1.921875h1.058594c6.421875 0 11 3.28125 12.953125 9.070313-.730469-.082032-.492188.429687-1 .929687-.511719.5-1.78125.699219-1.300781 2 .578125 1.367188.917968 2.828125 1 4.308594 0 .382812 1.898437-.289063 1.917968-.289063.261719.089844.722657 2.371094.191407 4.332032-.53125 1.957031-1.519532 2.769531-1.832032 2.769531-.457031.015625-.859375.320312-1 .757812-1.777343 6-6.4375 12.050782-11.917968 12.050782-5.480469 0-10.210938-6.058594-11.992188-12.050782-.132812-.441406-.542969-.746093-1.007812-.75z" fill="#faefde"/><path d="m19.449219 18c2.988281-.203125 5.566406-2.171875 6.550781-5 3 1 4 4 18 3 1.390625-.101562 1.601563.390625 2 0 .398438-.390625-.71875-2 0-1.929687-1.890625-5.789063-6.53125-9.070313-12.941406-9.070313h-1.058594c-2.382812-.007812-4.722656.648438-6.75 1.898438-.183594.136718-.402344.210937-.628906.210937-3 0-5 2-5.3125 5.390625-.175781 1.8125-.132813 3.636719.132812 5.441406z" fill="#cda1a7"/><path d="m32 40.929688c-3.179687 0-6.078125-2-8.300781-4.929688h-2.699219l8 25h6l8-25h-2.699219c-2.222656 2.890625-5.121093 4.929688-8.300781 4.929688z" fill="#fff7f0"/><path d="m36 61h-8l-.949219-7.339844 2.949219-6.660156h4l2.96875 6.78125z" fill="#ed7899"/><path d="m28 41h8l-2 6h-4z" fill="#ed7899"/><path d="m21 36.558594c0 .441406 8 24.441406 8 24.441406h-4.441406l-8.558594-12 3-4-1-8z" fill="#d6dff2"/><path d="m43 36.558594c0 .441406-9 24.441406-9 24.441406h4.441406l8.558594-12-2-4 1-8z" fill="#d6dff2"/><g fill="#8d6c9f"><path d="m47 54c-.550781 0-1 .449219-1 1v2c0 .550781.449219 1 1 1s1-.449219 1-1v-2c0-.550781-.449219-1-1-1z"/><path d="m52 54c-.550781 0-1 .449219-1 1v2c0 .550781.449219 1 1 1s1-.449219 1-1v-2c0-.550781-.449219-1-1-1z"/><path d="m56 55v2c0 .550781.449219 1 1 1s1-.449219 1-1v-2c0-.550781-.449219-1-1-1s-1 .449219-1 1z"/><path d="m17 54c-.550781 0-1 .449219-1 1v2c0 .550781.449219 1 1 1s1-.449219 1-1v-2c0-.550781-.449219-1-1-1z"/><path d="m12 54c-.550781 0-1 .449219-1 1v2c0 .550781.449219 1 1 1s1-.449219 1-1v-2c0-.550781-.449219-1-1-1z"/><path d="m7 54c-.550781 0-1 .449219-1 1v2c0 .550781.449219 1 1 1s1-.449219 1-1v-2c0-.550781-.449219-1-1-1z"/><path d="m55.75 41.378906-13.269531-6.378906c1.058594-1.644531 1.90625-3.414062 2.519531-5.269531 1.230469-.460938 2.351563-2 2.878906-4 .3125-1.085938.375-2.226563.179688-3.339844-.101563-1.039062-.800781-1.921875-1.789063-2.261719-.140625-.039062-.285156-.0625-.429687-.070312-.171875-1.175781-.480469-2.332031-.917969-3.4375v-.109375c.472656.054687.9375.175781 1.378906.359375.34375.140625.738282.082031 1.023438-.15625.289062-.242188.417969-.621094.335937-.984375-1.660156-7.320313-7.101562-11.730469-14.660156-11.730469h-1c-2.570312.011719-5.09375.699219-7.308594 2-3.691406.140625-6.269531 2.761719-6.691406 6.898438-.183594 1.867187-.140625 3.746093.128906 5.601562.054688.332031.085938.664063.089844 1 0 .1875-.027344.375-.089844.570313-.148437.003906-.296875.027343-.4375.070312-.988281.339844-1.6875 1.222656-1.792968 2.257813-.191407 1.113281-.128907 2.257812.179687 3.339843.542969 2 1.660156 3.5 2.882813 4 .625 1.855469 1.488281 3.625 2.558593 5.261719l-13.269531 6.378906c-3.808594 1.839844-6.238281 5.691407-6.25 9.921875v7.699219c0 1.65625 1.34375 3 3 3h54c1.65625 0 3-1.34375 3-3v-7.699219c-.011719-4.230468-2.441406-8.082031-6.25-9.921875zm-11.550781 4.222657 2.53125 3.398437-9.101563 11h-1.570312l7.703125-22.140625 1.167969.5625-.929688 6.4375c-.035156.265625.039063.53125.199219.742188zm-18.699219 14.398437-8.25-11 2.550781-3.398437c.15625-.214844.226563-.480469.1875-.742188l-.917968-6.4375 1.167968-.5625 7.703125 22.140625zm4.441406-.328125-2.132812-6.121094c.03125-.03125.058594-.066406.082031-.101562l2.730469-5.449219h2.757812l2.722657 5.449219c.023437.039062.050781.074219.078125.109375l-2.128907 6.113281c-.035156.105469-.050781.214844-.050781.328125h-4c0-.113281-.023437-.222656-.058594-.328125zm-10.171875-31.792969c-.289062 0-1.238281-.777343-1.730468-2.617187-.226563-.789063-.277344-1.613281-.148438-2.421875.097656-.511719.289063-.71875.328125-.730469.101563.019531.191406.058594.269531.121094.300782.179687.671875.1875.980469.023437.308594-.164062.511719-.476562.53125-.824218.023438-.515625.082031-1.03125.171875-1.539063.050781-.546875.023438-1.101562-.082031-1.640625-.238281-1.707031-.269531-3.4375-.089844-5.148437.308594-3.191407 2.191406-5.101563 5-5.101563.214844 0 .425781-.070312.601563-.199219 1.921875-1.1875 4.140625-1.8125 6.398437-1.800781h1c6.070313 0 10.449219 3.101563 12.25 8.578125-.671875-.132812-1.371094.046875-1.898437.480469-.578125.628906-.695313 1.550781-.292969 2.300781.535156 1.296875.839844 2.671875.902344 4.070313.015625.355468.222656.675781.542968.839843.316407.164063.695313.144532.996094-.050781.078125-.058594.171875-.101562.269531-.117187.058594 0 .242188.226562.339844.726562.144531.808594.105469 1.640625-.109375 2.433594-.488281 1.839844-1.441406 2.617187-1.730469 2.617187-.457031-.019531-.867187.273438-1 .710938-1.679687 5.671875-6.089843 11.410156-11.269531 11.410156-5.179687 0-9.589844-5.738281-11.269531-11.398437-.125-.429688-.515625-.722657-.960938-.722657zm12.230469 14.121094c3.601563 0 6.839844-2.210937 9.300781-5.308594l.648438.308594-4.847656 14-2-4 .867187-2.609375c.175781-.523437-.109375-1.089844-.632812-1.265625-.527344-.175781-1.09375.109375-1.265625.636719l-.789063 2.238281h-2.5625l-.769531-2.320312c-.171875-.523438-.738281-.808594-1.265625-.632813-.523438.171875-.808594.738281-.632813 1.261719l.871094 2.613281-2 4-4.863281-13.921875.652344-.308594c2.449218 3.097657 5.6875 5.308594 9.289062 5.308594zm-28 17v-7.699219c0-3.46875 1.992188-6.625 5.121094-8.121093l8.058594-3.859375.769531 5.398437-2.75 3.679688c-.265625.355468-.265625.847656 0 1.203125l7.800781 10.398437h-18c-.550781 0-1-.449219-1-1zm56 0c0 .550781-.449219 1-1 1h-18.710937l8.480468-10.371094c.28125-.359375.28125-.867187 0-1.230468l-2.769531-3.667969.769531-5.402344 8.058594 3.863281c3.144531 1.476563 5.160156 4.632813 5.171875 8.109375z"/><path d="m27.921875 14.878906c2.863281 1.390625 6.003906 2.117188 9.1875 2.121094h2.550781c.550782 0 1-.449219 1-1s-.449218-1-1-1h-2.550781c-2.882812-.003906-5.726562-.660156-8.320312-1.921875l-1.558594-.757812c-.90625-.441407-1.996094-.140625-2.550781.699218l-1.601563 2.429688c-.203125.300781-.230469.683594-.070312 1.007812.160156.324219.484375.535157.84375.554688.363281.019531.703125-.15625.898437-.460938l1.601563-2.429687z"/></g></svg>