<svg enable-background="new 0 0 512 512" height="200" viewBox="0 0 512 512" width="200" xmlns="http://www.w3.org/2000/svg"><g fill="#3ab37c"><path d="m329.5 72.3c-6-6.7-12.4-13.2-19.1-19.3-1.1-1-2.2-1.9-3.2-2.9 9 12.3 17.1 25.3 21 40.2 3.1 12 4.3 24.6 3.8 37.1 5.3-6.8 9.4-14.1 12.6-22.6 1.2-3.1 3.8-3.8 6.2-3.1-5.8-10.4-13-20.2-21.3-29.4z"/><path d="m365 140.4c-2.1-10.6-5.4-20.6-9.8-30.1-4.9 12.9-12.1 23.7-21.8 33.5-1 1-2.2 1.6-3.3 1.8-1.1 6.4-2.6 12.8-4.5 18.9-.9 2.8-1.8 5.6-2.7 8.4 1.7-1.4 3.4-2.6 5.1-3.9 4.2-3.2 8.8-6.3 12.6-10 1.4-1.3 3.1-2.8 3.9-4.5.6-1.2.7.2-.1-1.3-3.4-6.8 7.8-10.7 11.2-3.9 4.7 9.5-6.4 18.4-12.8 23.4-4.7 3.7-9.7 7.2-14.3 11.2-2.1 1.8-6.5 6.1-6.5 7.4-.2 4.5-4.5 6.7-7.8 6.1-.3.8-.7 1.7-1 2.5-2.7 6.7-5.8 13.4-9.6 19.6 14.7-4.2 28.7-14.9 36.3-27.2 4-6.4 14.7-1.2 10.6 5.3-11.8 18.9-34.7 34.8-57.5 35.6-9.5 9.6-21.4 15.6-33.9 20.7 16.6 7.3 35.6 7.6 52.8.8 21.6-8.5 39.9-23.9 49.3-45.5 9.5-22.3 8.3-45.5 3.8-68.8z"/><path d="m300.8 103.9c7.7 4.7 14.7 12 19.5 20.5.3-11.2-.8-22.5-4.2-33.1-4-12.7-10.9-23.8-18.6-34.4.2 2.4.2 4.9 0 7.4-.9 11.3-5.9 21.5-11 31.4-10.6 21.1-28.7 33.6-47.1 47.2-17.3 12.7-37 27.5-32.4 51.6 1.9 10.2 9.4 19.5 16.2 27 7.1 7.8 14.8 15 22.2 22.4.6.6 1.1 1.3 1.4 2.1 13.8-5.1 27.6-10.8 37.9-21.3-.3-.5-.4-1.1-.6-1.8-3.5-20.6-16.7-39-30.4-54.3-5-5.6 2.7-14.6 7.8-8.9 13.8 15.4 26.4 32.8 32.2 52.7 4-6.6 7.1-13.8 9.8-21 .3-.8.6-1.6.9-2.4-4.4-17.8-18.8-31.2-29.1-45.8-4.4-6.2 5.4-12.9 9.8-6.6 8.6 12.1 18.7 23.1 25.3 36 1.4-4 2.7-8.1 3.9-12.2.9-3.1 1.7-6.2 2.4-9.4-1.1-.9-1.9-2.2-1.9-4.1-.3-12.3-8.9-26-19.4-32.4-6.4-3.9-1.2-14.6 5.4-10.6z"/></g><path d="m402 292.8c-9.7 3.8-16.2 12-23.3 19.4-6.2 6.6-12.6 13-19.6 18.8-2.4 2-4.9 3.9-7.2 6-.4.3-.8.7-1.1 1 0 2.9-2.1 6.1-5.5 6.6.2.9.3 1.9.3 2.9.8 16.6-11.1 31.7-25.7 41.4 25.3-9.5 40.7-33.4 56.8-53.8 6.9-8.7 14.1-17.2 22.5-24.6 7.6-6.6 17-13.5 27.1-15.5-7.3-4.5-16.2-5.4-24.3-2.2z" fill="#fcbf95"/><path d="m367.2 298c-6.7 5.3-13.1 10.7-20.3 15.2-6.9 4.3-13.9 8.5-20.9 12.7 5.1 1.2 9.8 3.6 13.3 7.1 2-2.9 5-5.2 7.6-7.4 9.5-7.9 18.3-16.4 27-25.6 4.6-4.8 9.4-9.5 14.7-13.3-7.8.8-15.6 6.7-21.4 11.3z" fill="#fcbf95"/><path d="m440.1 311.3c-3.3-10.1-17-3.3-22.9.5-37.7 23.9-51.2 74.8-96.2 89.2-5.6 1.8-9.2-4.4-7.2-8.5-5.8 3.1-11.7 5.4-17.3 6.6-26 5.6-52.4-2.4-71.9-20.3-5.6-5.2 2.2-14.1 7.8-8.9 18.6 17.1 46.4 25.1 70.4 14.7 11.3-4.9 22.8-14 28.3-25.3 2.4-5 4.3-11.4.8-16.5-3.9-5.6-10.3-6.6-16.7-5.4-13.1 2.4-24.2 11-37.6 11.9-13.8 1-27-2.8-39.9-7.5-25.1-9.1-50.8-19.6-77.2-8.4-21.4 9-34.8 29.5-46.5 48.5-4.3 6.9-9.5 13.4-14 20.3-4.1 6.3-8.3 12.7-12.9 18.7-3.3 4.3-6.7 8.6-10.2 12.7-1.4 1.6-2.7 3.2-4.1 4.8-.1.2-.3.3-.4.5.1.7.1 1.4 0 2.1 16.5 7.4 30.8 19.1 47.7 25.4 11.3 4.2 21.7 3 30.5-5.6 7.7-7.5 13.6-16.7 21.5-24 10.3-9.4 23.4-13.5 37.1-9.9 14.4 3.7 27.3 11.7 41.4 16.3 24.5 8 53.6 15.8 77.7 2.5 19.1-10.6 32-28.8 45.6-45.3 7.8-9.4 16-18.3 24.8-26.7 10.4-9.9 21.6-19.4 30.4-30.9 6.2-8 14.6-20.7 11-31.5z" fill="#fcbf95"/><path d="m451.3 307.3c-1.8-6.8-7-10.7-13.1-12.2.1-2.7.3-6-2-7.7-2.6-1.9-5.3-3.6-8.2-5-6-2.9-12.9-3.7-19.5-3.2-1.1.1-2.2.2-3.3.4-23.1-15.6-44.2 10.7-62.8 22.4-9.2 5.8-18.6 11.3-27.9 17-4.7 2.9-13.3 6.5-16.6 11.8-5.4 2.4-10.8 4.9-16.6 6.1-13.5 2.8-27.4-1.6-40-6.2-13.4-4.8-26.6-10.4-40.7-12.9-17.8-3.2-36.6-.1-52.4 8.5-15.1 8.2-26.3 22.2-35.8 36.2-12.5 18.4-23.9 38-38 55.1-4 4.9-8.1 9.6-12.2 15-1.8 2.4-3.4 5.1-2.4 8.2.5 1.6 1.5 2.7 2.7 3.3-.8 2.5-.1 5.3 3 6.7 23.6 10.1 47.9 34.9 75.5 28.9 23.7-5.2 29.7-35.6 52.4-41.8 13.4-3.7 27.4 6.4 39.2 11.2 14.4 5.8 29.4 10.2 44.6 13.2 24.4 4.9 48 1.6 68.1-13.6 17.7-13.4 30.3-32.4 44.7-49 18-20.6 41.5-36.5 55.6-60.3 5.7-9.4 8.6-21.3 5.7-32.1zm-49.3-14.5c8.1-3.2 17-2.3 24.3 2.2-10.1 2-19.5 8.9-27.1 15.5-8.4 7.3-15.6 15.8-22.5 24.6-16.1 20.4-31.5 44.3-56.8 53.8 14.6-9.8 26.5-24.8 25.7-41.4 0-1-.2-1.9-.3-2.9 3.4-.5 5.5-3.7 5.5-6.6.4-.4.8-.7 1.1-1 2.4-2.1 4.8-4 7.2-6 7-5.8 13.4-12.2 19.6-18.8 7-7.5 13.5-15.6 23.3-19.4zm-55.2 20.4c7.3-4.5 13.6-9.9 20.3-15.2 5.9-4.6 13.6-10.5 21.4-11.3-5.3 3.7-10.1 8.4-14.7 13.3-8.7 9.2-17.5 17.7-27 25.6-2.6 2.2-5.6 4.5-7.6 7.4-3.5-3.5-8.2-6-13.3-7.1 7-4.2 14-8.4 20.9-12.7zm82.4 29.6c-8.8 11.5-20 21-30.4 30.9-8.8 8.4-17 17.3-24.8 26.7-13.6 16.5-26.5 34.7-45.6 45.3-24.1 13.3-53.2 5.5-77.7-2.5-14.2-4.6-27-12.6-41.4-16.3-13.7-3.5-26.8.6-37.1 9.9-8 7.3-13.9 16.4-21.5 24-8.8 8.6-19.2 9.8-30.5 5.6-16.9-6.3-31.3-18-47.7-25.4.1-.7.2-1.4 0-2.1.1-.2.3-.3.4-.5 1.3-1.6 2.7-3.2 4.1-4.8 3.5-4.1 6.8-8.4 10.2-12.7 4.6-6 8.8-12.3 12.9-18.7 4.5-6.8 9.7-13.3 14-20.3 11.8-19 25.2-39.4 46.5-48.5 26.4-11.1 52.1-.6 77.2 8.4 12.8 4.6 26.1 8.4 39.9 7.5 13.4-.9 24.6-9.5 37.6-11.9 6.4-1.2 12.8-.2 16.7 5.4 3.5 5.1 1.6 11.5-.8 16.5-5.5 11.3-17 20.4-28.3 25.3-24 10.4-51.8 2.4-70.4-14.7-5.7-5.2-13.5 3.8-7.8 8.9 19.5 17.9 46 25.9 71.9 20.3 5.6-1.2 11.6-3.5 17.3-6.6-2 4 1.6 10.3 7.2 8.5 45-14.5 58.5-65.3 96.2-89.2 6-3.8 19.6-10.6 22.9-.5 3.5 10.8-4.9 23.5-11 31.5z" fill="#010101"/><path d="m379.5 154.4c-3.4-28.1-13.3-55.2-30.7-77.6-8.2-10.5-17.4-20.3-27.1-29.5-4.7-4.5-9.5-8.8-14.9-12.5-3.9-2.7-9-6-14-4.1-.4.2-.8.4-1.1.6-3.1-5.3-12.5-1.4-10.6 5.4 2.7 9.5 5.6 19.2 4.2 29.1-1.6 11.6-8.2 23.9-14.7 33.5-12.9 19.1-34.5 30.1-51.9 44.5-8.3 6.9-16 14.7-20.6 24.6-4.7 10.1-4.8 21.7-1.8 32.3 3 10.7 10.6 20.2 17.9 28.3 6.7 7.6 14.1 14.5 21.3 21.6-3.6 4 .1 11.9 6.3 9.6.9-.3 1.7-.6 2.6-1 21.7 13.1 47.3 15.5 71.3 6.4 22.1-8.4 40.9-23.7 52.5-44.4 11.3-19.9 14.1-44.1 11.3-66.8zm-69.1-101.4c6.7 6 13.1 12.5 19.1 19.3 8.3 9.2 15.4 19 21.3 29.5-2.4-.7-5.1.1-6.2 3.1-3.2 8.5-7.4 15.8-12.6 22.6.5-12.5-.7-25.1-3.8-37.1-3.9-15-11.9-28-21-40.2 1.1.9 2.2 1.8 3.2 2.8zm-65 190.9c-7.5-7.4-15.2-14.6-22.2-22.4-6.8-7.5-14.3-16.8-16.2-27-4.6-24.1 15.1-38.9 32.4-51.6 18.5-13.6 36.5-26.2 47.1-47.2 5-10 10.1-20.1 11-31.4.2-2.5.2-4.9 0-7.4 7.8 10.6 14.6 21.6 18.6 34.4 3.3 10.6 4.5 21.8 4.2 33.1-4.8-8.4-11.8-15.8-19.5-20.5-6.6-4-11.8 6.7-5.3 10.6 10.5 6.3 19 20.1 19.4 32.4.1 1.9.8 3.3 1.9 4.1-.7 3.2-1.5 6.3-2.4 9.4-1.1 4.1-2.5 8.1-3.9 12.2-6.6-12.9-16.7-23.8-25.3-36-4.4-6.2-14.3.4-9.8 6.6 10.3 14.6 24.7 28 29.1 45.8-.3.8-.6 1.6-.9 2.4-2.7 7.2-5.9 14.4-9.8 21-5.8-20-18.4-37.3-32.2-52.7-5.1-5.7-12.9 3.3-7.8 8.9 13.6 15.3 26.9 33.6 30.4 54.3.1.6.3 1.2.6 1.8-10.2 10.5-24.1 16.2-37.9 21.3-.4-.8-.9-1.4-1.5-2.1zm115.6-34.7c-9.3 21.6-27.7 37-49.3 45.5-17.2 6.8-36.1 6.5-52.8-.8 12.4-5.1 24.3-11.1 33.9-20.7 22.8-.8 45.7-16.7 57.5-35.6 4-6.5-6.6-11.7-10.6-5.3-7.6 12.3-21.6 22.9-36.3 27.2 3.8-6.2 6.9-12.9 9.6-19.6.3-.8.7-1.7 1-2.5 3.3.6 7.6-1.6 7.8-6.1.1-1.3 4.5-5.7 6.5-7.4 4.6-3.9 9.6-7.4 14.3-11.2 6.4-5 17.6-13.9 12.8-23.4-3.4-6.7-14.6-2.9-11.2 3.9.7 1.5.6.2.1 1.3-.8 1.7-2.5 3.2-3.9 4.5-3.8 3.7-8.4 6.8-12.6 10-1.6 1.2-3.3 2.5-5.1 3.9.9-2.8 1.8-5.6 2.7-8.4 1.9-6.2 3.4-12.5 4.5-18.9 1.1-.2 2.3-.7 3.3-1.8 9.7-9.9 16.9-20.6 21.8-33.5 4.4 9.4 7.8 19.4 9.8 30.1 4.7 23.3 5.9 46.5-3.8 68.8z" fill="#010101"/></svg>