<svg height="245" viewBox="0 0 64 64" width="245" xmlns="http://www.w3.org/2000/svg"><path d="m49 10.5c0 4.140625-3.359375 7.5-7.5 7.5s-7.5-3.359375-7.5-7.5 3.359375-7.5 7.5-7.5 7.5 3.359375 7.5 7.5z" fill="#f9e3ae"/><path d="m41 16c0 4.96875-4.03125 9-9 9s-9-4.03125-9-9 4.03125-9 9-9 9 4.03125 9 9z" fill="#f6d397"/><path d="m53 27c0 6.628906-5.371094 12-12 12s-12-5.371094-12-12 5.371094-12 12-12 12 5.371094 12 12z" fill="#f9e3ae"/><path d="m27 50 5 2c2.515625 1.007813 5.335938.949219 7.808594-.160156l2.953125-1.328125c.730469-.304688 1.21875-1.007813 1.238281-1.800781v-.410157c.003906-1.113281-.457031-2.179687-1.273437-2.9375-.8125-.757812-1.90625-1.144531-3.015625-1.0625l-2.191407.160157c-1.03125.074218-2.066406-.117188-3-.5625l-9.410156-4.4375c-2.027344-.957032-4.28125-1.324219-6.507812-1.0625l-11.832032 1.390625c-1.011718.117187-1.777343.980468-1.769531 2v12.652343c0 .613282.285156 1.195313.769531 1.574219.480469.375 1.113282.511719 1.710938.363281l6.519531-1.640625c1.910156-.476562 3.929688-.234375 5.671875.683594l12.628906 6.628906c2.320313 1.210938 5.089844 1.210938 7.410157 0l21.289062-11.050781c1.226563-.628906 2-1.890625 2-3.269531 0-1.136719-.527344-2.210938-1.425781-2.90625-.902344-.699219-2.074219-.9375-3.175781-.652344l-14.398438 3.757813" fill="#faefde"/><path d="m42.488281 56.640625-2.777343 1.4375c-2.320313 1.214844-5.089844 1.214844-7.410157 0l-12.589843-6.65625c-1.753907-.929687-3.789063-1.171875-5.710938-.683594l-9 2.261719v1.441406c0 .613282.285156 1.195313.769531 1.574219.480469.375 1.113282.511719 1.710938.363281l6.519531-1.640625c1.910156-.476562 3.929688-.234375 5.671875.683594l12.628906 6.628906c2.320313 1.210938 5.089844 1.210938 7.410157 0l7.097656-3.679687-.339844-.601563c-.8125-1.378906-2.5625-1.875-3.980469-1.128906z" fill="#efd8be"/><path d="m25.121094 43.46875 9.410156 4.441406c.933594.441407 1.96875.636719 3 .558594l2.1875-.160156c1.46875-.097656 2.867188.617187 3.652344 1.863281l.097656.179688c.402344.894531 1.390625 1.371093 2.339844 1.117187l17.101562-4.46875c-.199218-.988281-.796875-1.851562-1.652343-2.386719-.855469-.535156-1.890625-.695312-2.867188-.441406l-14.390625 3.757813c-.199219-2.160157-2.085937-3.765625-4.25-3.621094l-2.191406.160156c-1.03125.078125-2.0625-.117187-3-.558594l-9.410156-4.441406c-2.039063-.964844-4.308594-1.335937-6.546875-1.070312l-11.832032 1.390625c-1.011718.117187-1.777343.980468-1.769531 2v2.210937l13.601563-1.601562c2.230468-.257813 4.488281.113281 6.519531 1.070312z" fill="#fff7f0"/><g fill="#8d6c9f"><path d="m11 42h-2c-.550781 0-1 .449219-1 1s.449219 1 1 1h2c.550781 0 1-.449219 1-1s-.449219-1-1-1z"/><path d="m11 47h-2c-.550781 0-1 .449219-1 1s.449219 1 1 1h2c.550781 0 1-.449219 1-1s-.449219-1-1-1z"/><path d="m11 52h-2c-.550781 0-1 .449219-1 1s.449219 1 1 1h2c.550781 0 1-.449219 1-1s-.449219-1-1-1z"/><path d="m62.179688 44.050781c-1.132813-.878906-2.609375-1.1875-4-.832031l-13.441407 3.480469c-.726562-2.160156-2.824218-3.554688-5.097656-3.390625l-2.191406.160156c-.84375.054688-1.683594-.109375-2.449219-.46875l-9.410156-4.441406c-2.203125-1.035156-4.652344-1.433594-7.070313-1.148438l-11.871093 1.390625c-1.515625.175782-2.660157 1.46875-2.648438 3v12.640625c0 .921875.425781 1.796875 1.15625 2.363282.726563.570312 1.675781.769531 2.574219.546875l6.558594-1.640625c1.683593-.429688 3.464843-.214844 5 .597656l12.589843 6.632812c2.613282 1.363282 5.730469 1.363282 8.339844 0l21.300781-11c1.414063-.738281 2.359375-2.148437 2.5-3.738281.144532-1.589844-.53125-3.144531-1.789062-4.125zm-1.628907 6.089844-21.300781 11c-2.03125 1.058594-4.449219 1.058594-6.480469 0l-12.589843-6.601562c-1.957032-1.03125-4.222657-1.304688-6.371094-.769532l-6.570313 1.640625c-.300781.074219-.625.003907-.867187-.191406-.242188-.199219-.378906-.496094-.371094-.808594v-12.628906c-.003906-.511719.375-.941406.878906-1l11.832032-1.390625c2.054687-.238281 4.132812.109375 6 1l9.410156 4.4375c1.085937.511719 2.289062.734375 3.488281.652344l2.191406-.160156c.832032-.0625 1.652344.226562 2.265625.796875.609375.570312.957032 1.367187.953125 2.203125v.410156c0 .390625-.230468.75-.589843.910156l-3 1.328125c-2.21875.988281-4.742188 1.042969-7 .152344l-5-2c-.511719-.207031-1.09375.046875-1.300782.558594-.203125.515625.046875 1.097656.5625 1.300781l5 2c2.773438 1.105469 5.875 1.039062 8.597657-.179688l3-1.332031c1.0625-.503906 1.730468-1.582031 1.710937-2.757812l13.648438-3.539063c1.359375-.4375 2.820312.261719 3.328125 1.59375.507812 1.328125-.113282 2.824219-1.417969 3.40625z"/><path d="m28 16c0-2.210937 1.789063-4 4-4 .550781 0 1-.449219 1-1s-.449219-1-1-1c-3.3125 0-6 2.6875-6 6 0 .550781.449219 1 1 1s1-.449219 1-1z"/><path d="m28.140625 25.210938c-.894531 6.410156 3.066406 12.5 9.289063 14.289062 6.222656 1.785156 12.808593-1.28125 15.453125-7.191406 2.644531-5.90625.535156-12.859375-4.941407-16.308594 2.09375-2.441406 2.628907-5.859375 1.375-8.824219-1.25-2.964843-4.074218-4.964843-7.289062-5.164062-3.210938-.199219-6.257813 1.441406-7.867188 4.226562-5.0625-1.125-10.148437 1.804688-11.710937 6.75-1.5625 4.949219.917969 10.265625 5.710937 12.25zm23.859375 1.789062c0 6.074219-4.925781 11-11 11s-11-4.925781-11-11 4.925781-11 11-11 11 4.925781 11 11zm-10.5-23c2.621094-.007812 4.988281 1.566406 5.996094 3.984375 1.007812 2.417969.460937 5.207031-1.386719 7.066406-1.367187-.578125-2.824219-.917968-4.308594-1-.632812-3.160156-2.753906-5.824218-5.691406-7.152343 1.199219-1.804688 3.222656-2.894532 5.390625-2.898438zm-9.5 4c3.667969.003906 6.859375 2.503906 7.75 6.058594-5.230469.507812-9.644531 4.113281-11.179687 9.140625-3.347657-1.621094-5.136719-5.332031-4.316407-8.960938.816407-3.625 4.027344-6.210937 7.746094-6.238281z"/><path d="m40 19v1c-2.210937 0-4 1.789063-4 4 0 2.210938 1.789063 4 4 4h2c1.105469 0 2 .894531 2 2s-.894531 2-2 2v-2c0-.550781-.449219-1-1-1s-1 .449219-1 1v2c-1.105469 0-2-.894531-2-2 0-.550781-.449219-1-1-1s-1 .449219-1 1c0 2.210938 1.789063 4 4 4v1c0 .550781.449219 1 1 1s1-.449219 1-1v-1c2.210938 0 4-1.789062 4-4 0-2.210937-1.789062-4-4-4v-2c0-.550781-.449219-1-1-1s-1 .449219-1 1v2c-1.105469 0-2-.894531-2-2s.894531-2 2-2h2c1.105469 0 2 .894531 2 2 0 .550781.449219 1 1 1s1-.449219 1-1c0-2.210937-1.789062-4-4-4v-1c0-.550781-.449219-1-1-1s-1 .449219-1 1z"/></g></svg>