<svg height="40" viewBox="0 0 48 48" width="40" xmlns="http://www.w3.org/2000/svg"><path d="m18.699219 13.765625.003906.003906c.105469-.445312.484375-.769531.957031-.769531h13.472657c.015625 0 .03125-.007812.050781-.007812-.289063-4.777344-4.296875-6.992188-7.832031-6.992188h-13.472657c-.476562 0-.851562.335938-.957031.777344l-.003906-.003906-5.890625 27.039062h.015625c-.015625.066406-.039063.125-.039063.195313 0 .554687.445313.992187 1 .992187h8.070313z" fill="#1565c0"/><path d="m33.183594 12.992188c.050781.878906-.003906 1.832031-.230469 2.882812-1.28125 5.996094-5.910156 9.117188-11.632812 9.117188 0 0-3.472657 0-4.3125 0-.523438 0-.769532.304687-.882813.539062l-1.738281 8.046875-.304688 1.429688h-.007812l-1.261719 5.796875h.011719c-.011719.066406-.039063.125-.039063.195312 0 .554688.449219 1 1 1h7.332032l.015625-.011719c.472656-.003906.847656-.34375.945312-.785156l.015625-.015625 1.8125-8.417969s.125-.800781.972656-.800781h4.175782c5.722656 0 10.402343-3.105469 11.683593-9.101562 1.441407-6.761719-3.378906-9.847657-7.554687-9.875z" fill="#039be5"/><path d="m19.660156 13c-.472656 0-.851562.324219-.957031.769531l-.003906-.003906-2.574219 11.765625c.113281-.234375.359375-.539062.878906-.539062h4.234375c5.726563 0 10.433594-3.121094 11.714844-9.113282.226563-1.054687.28125-2.007812.230469-2.882812-.019531-.003906-.035156.003906-.050781.003906z" fill="#283593"/></svg>