<svg height="512pt" preserveAspectRatio="xMidYMid meet" viewBox="0 0 512 512" width="512pt" xmlns="http://www.w3.org/2000/svg"><g transform="matrix(.1 0 0 -.1 0 512)"><path d="m2435 4033c-289-39-568-238-696-498-18-36-37-64-44-62-15 6-122 34-157 42-16 3-28 12-28 20 0 29-24 66-57 86-29 18-43 20-104 15-313-30-580-249-690-566-25-72-34-135-34-250s7-157 40-257c89-267 304-464 582-533 89-23 216-30 309-17 101 14 278 81 326 123 26 24 38 77 27 118-9 32-7 37 39 86l48 52 60-39c84-55 175-97 274-123 68-19 111-23 220-24 74 0 149 3 165 6 17 4 42 10 57 13 89 18 244 88 316 143l34 24 50-51c40-42 48-55 42-74-23-70 6-124 93-170 368-193 827-72 1058 278 232 353 163 810-163 1081-124 103-326 182-459 180-54-1-66-5-92-30-16-16-33-42-36-57-6-28-12-31-75-44-36-6-92-22-111-29-12-6-24 8-49 59-113 227-318 395-575 470-72 21-115 27-215 29-69 1-138 1-155-1z"/><path d="m2497 1864c-1-1-42-4-92-8-49-3-101-8-115-11s-41-8-60-11c-53-10-62-12-97-23-18-5-33-8-33-6 0 11-247-82-340-128l-105-51-200-1c-110-1-224-5-253-10-42-6-52-5-52 7 0 24-55 68-91 74-71 11-331-94-492-199-205-134-375-308-501-514-45-73-51-128-20-170 46-61-144-57 2499-57 1331 0 2437 3 2457 7 49 10 91 62 91 115 0 90-189 337-388 507-60 51-207 147-298 194-127 67-303 126-348 117-38-7-89-48-89-73 0-13-8-14-52-7-29 4-145 8-258 9l-205 1-55 30c-122 67-354 151-466 168-71 12-97 17-103 21-13 7-326 25-334 19z"/></g></svg>