<svg version="1.0" xmlns="http://www.w3.org/2000/svg"
 width="150" height="150" viewBox="0 0 150 150"
 preserveAspectRatio="xMidYMid meet">
<g transform="translate(0.000000,150.000000) scale(0.100000,-0.100000)"
fill="#000000" stroke="none">
<path d="M626 1485 c-204 -52 -364 -203 -414 -390 -14 -54 -21 -66 -48 -79
-18 -8 -45 -32 -61 -52 -25 -34 -28 -45 -28 -114 0 -69 3 -80 29 -114 31 -41
94 -75 138 -76 22 0 32 -8 47 -38 11 -22 36 -60 55 -86 20 -25 36 -48 36 -50
0 -2 -26 -19 -57 -36 -84 -48 -174 -139 -213 -216 -28 -55 -34 -79 -38 -150
l-5 -84 683 0 683 0 -5 84 c-4 71 -10 95 -38 150 -39 77 -129 168 -213 216
-31 17 -57 34 -57 36 0 2 16 25 36 50 19 26 44 64 55 86 15 30 25 38 47 38 44
1 107 35 138 76 26 34 29 45 29 114 0 69 -3 80 -28 114 -16 20 -44 44 -62 53
-27 13 -34 24 -44 69 -15 66 -61 154 -113 217 l-40 47 34 33 c18 19 40 36 48
40 13 5 13 7 0 16 -43 31 -123 38 -183 17 -34 -13 -44 -12 -110 11 -90 32
-216 39 -301 18z m357 -386 c31 -45 99 -92 169 -117 55 -19 58 -26 58 -136 0
-51 4 -76 9 -70 15 14 41 123 41 171 0 49 13 54 60 27 39 -24 60 -65 60 -119
0 -89 -51 -139 -141 -138 -44 1 -46 -1 -59 -36 -20 -60 -69 -128 -128 -182
-32 -29 -57 -60 -58 -69 -1 -10 -4 -29 -8 -44 -9 -37 -2 -33 31 19 15 25 31
45 36 45 4 0 35 -13 70 -29 133 -62 223 -161 253 -279 8 -35 13 -69 11 -76 -4
-11 -63 -13 -274 -12 l-268 1 -7 40 c-3 22 -11 65 -16 95 -9 48 -8 58 9 82
l20 28 -40 43 c-23 25 -49 43 -61 43 -12 0 -38 -18 -61 -43 l-40 -43 21 -28
c17 -23 18 -33 10 -62 -5 -19 -10 -51 -10 -72 0 -20 -4 -48 -10 -62 l-9 -26
-268 3 -268 2 2 40 c8 128 103 250 248 319 86 41 88 41 119 -9 33 -52 39 -55
30 -19 -4 15 -7 34 -8 44 -1 9 -26 40 -58 69 -59 54 -108 122 -128 182 -13 35
-15 37 -59 36 -90 -1 -141 49 -141 138 0 54 21 95 60 119 47 27 60 22 60 -27
0 -48 26 -157 41 -172 5 -5 9 22 9 75 0 47 4 90 8 96 4 6 59 13 132 17 200 10
387 67 480 146 19 17 37 30 40 30 3 0 17 -18 33 -40z"/>
</g>
</svg>
