<svg version="1.0" xmlns="http://www.w3.org/2000/svg"
 width="400" height="400" viewBox="0 0 400 400"
 preserveAspectRatio="xMidYMid meet">
<g transform="translate(0.000000,400.000000) scale(0.100000,-0.100000)"
fill="#000000" stroke="none">
<path d="M1820 3991 c0 -5 -26 -13 -57 -17 -162 -19 -397 -105 -561 -206 -160
-97 -346 -274 -441 -418 -53 -81 -56 -86 -104 -185 -60 -122 -92 -220 -122
-372 -6 -28 -16 -38 -78 -70 -77 -40 -167 -122 -208 -188 -54 -87 -64 -130
-63 -275 1 -157 11 -193 88 -297 89 -119 218 -189 375 -202 l75 -6 51 -100
c58 -116 132 -228 199 -301 25 -29 46 -56 46 -61 0 -6 -19 -18 -42 -29 -192
-84 -447 -285 -576 -454 -39 -51 -115 -186 -145 -254 -58 -137 -68 -188 -74
-378 l-6 -178 1823 0 1823 0 -6 178 c-6 190 -16 241 -74 378 -35 81 -110 208
-161 274 -116 148 -334 322 -519 414 -40 20 -75 41 -78 46 -4 6 18 38 47 73
78 90 136 178 194 292 l50 100 75 6 c157 13 286 83 375 202 77 104 87 140 88
297 1 145 -9 188 -63 275 -42 68 -134 150 -209 186 -63 31 -70 38 -76 69 -26
142 -62 251 -123 375 -74 148 -114 209 -217 328 -42 49 -76 92 -76 96 0 4 13
27 28 52 33 51 83 97 147 134 25 15 45 33 45 42 0 20 -137 80 -216 94 -106 18
-277 -6 -356 -51 -26 -15 -51 -12 -105 11 -116 51 -256 91 -355 103 -32 4 -58
12 -58 17 0 5 -76 9 -180 9 -104 0 -180 -4 -180 -9z m404 -197 c90 -18 163
-42 234 -78 104 -54 127 -51 -461 -51 -367 0 -538 3 -527 10 169 100 291 132
519 134 104 1 180 -4 235 -15z m342 -796 c9 -18 56 -73 103 -122 123 -126 249
-205 435 -270 l91 -32 11 -45 c21 -83 34 -270 24 -349 -12 -99 -12 -140 0
-140 10 0 37 46 58 100 37 99 53 184 62 334 6 88 14 164 20 170 16 16 117 -23
181 -71 42 -30 68 -60 96 -110 l38 -68 -1 -115 c0 -96 -4 -123 -22 -161 -51
-108 -157 -190 -272 -208 -58 -10 -72 -9 -145 3 -22 3 -46 2 -53 -2 -7 -5 -22
-35 -33 -68 -76 -217 -200 -389 -407 -561 -98 -83 -104 -90 -99 -119 3 -18 -5
-67 -19 -115 -25 -90 -28 -109 -16 -109 7 0 40 50 54 83 4 9 26 44 48 77 22
32 40 66 40 75 0 29 30 28 123 -5 122 -44 251 -111 318 -166 30 -24 58 -44 62
-44 15 0 121 -86 169 -138 56 -60 147 -196 177 -267 12 -27 26 -59 31 -70 17
-40 40 -132 56 -225 15 -90 14 -95 -3 -108 -16 -12 -198 -12 -488 -1 -22 0
-238 -2 -480 -6 -320 -6 -447 -5 -462 3 -23 13 -38 78 -48 217 -9 122 -25 218
-41 242 -8 12 -14 27 -14 32 0 9 55 96 70 111 28 28 31 39 16 67 -8 15 -55 69
-103 120 l-88 92 -55 0 -55 -1 -88 -91 c-48 -51 -95 -105 -103 -120 -15 -28
-12 -39 16 -67 15 -15 70 -102 70 -111 0 -5 -6 -20 -14 -32 -15 -22 -23 -74
-50 -316 -11 -99 -17 -127 -32 -139 -16 -12 -85 -13 -459 -7 -242 4 -460 6
-485 6 -346 -11 -476 -11 -493 1 -17 13 -18 18 -3 108 25 149 47 215 108 337
75 146 186 274 305 349 32 21 78 54 103 75 53 43 224 127 327 160 73 23 82 23
87 -3 1 -7 23 -45 49 -85 26 -39 47 -74 47 -78 0 -10 52 -75 60 -75 4 0 -5 45
-21 100 -23 76 -27 105 -19 119 13 25 0 39 -130 149 -102 86 -118 102 -195
202 -83 107 -144 217 -181 326 -24 73 -40 87 -89 78 -75 -13 -90 -13 -147 -3
-115 20 -219 101 -270 208 -19 39 -22 64 -23 161 l0 115 38 68 c28 50 54 80
96 110 65 49 165 87 181 71 6 -6 15 -83 20 -170 11 -181 38 -298 93 -401 31
-58 40 -41 31 60 -14 145 2 383 27 413 7 8 68 12 194 13 349 3 678 55 981 157
176 59 390 176 491 269 26 24 56 44 65 45 10 0 25 -14 34 -32z"/>
</g>
</svg>
