<svg version="1.0" xmlns="http://www.w3.org/2000/svg"
 width="200" height="200" viewBox="0 0 200 200"
 preserveAspectRatio="xMidYMid meet">
<g transform="translate(0.000000,200.000000) scale(0.100000,-0.100000)"
fill="#000000" stroke="none">
<path d="M824 1976 c-162 -42 -307 -132 -403 -248 -65 -79 -128 -207 -143
-288 -10 -52 -16 -64 -37 -73 -92 -39 -151 -131 -151 -233 0 -71 17 -119 62
-169 40 -46 96 -74 159 -82 46 -5 52 -9 71 -47 27 -53 74 -124 106 -158 14
-15 24 -29 21 -31 -2 -2 -42 -26 -88 -53 -207 -120 -331 -314 -331 -516 l0
-78 910 0 910 0 0 78 c0 167 -89 339 -231 449 -51 39 -158 107 -183 116 -6 3
-1 16 15 33 33 37 80 107 107 160 19 38 25 42 71 47 63 8 119 36 159 82 45 50
62 98 62 169 0 102 -59 194 -151 233 -21 9 -27 21 -37 73 -15 81 -78 209 -142
285 -27 33 -50 67 -50 76 0 16 57 73 96 95 17 10 15 13 -25 34 -64 32 -142 37
-216 12 -54 -19 -62 -19 -88 -5 -16 8 -72 26 -124 39 -124 31 -227 31 -349 0z
m311 -86 c43 -11 91 -28 106 -38 27 -16 19 -17 -243 -18 -268 -1 -270 -1 -240
17 42 27 167 58 238 58 33 1 96 -8 139 -19z m309 -539 c28 -16 74 -36 103 -45
48 -16 53 -21 60 -54 4 -20 7 -81 7 -135 0 -53 3 -94 8 -89 28 28 56 161 58
275 0 40 89 4 132 -54 38 -51 44 -138 13 -199 -33 -64 -113 -106 -186 -96
l-46 6 -23 -60 c-37 -99 -138 -226 -228 -287 -14 -10 -20 -22 -17 -32 3 -10
-1 -38 -9 -64 -8 -26 -12 -47 -10 -47 6 0 74 110 74 120 0 14 13 13 77 -11 96
-36 202 -108 266 -179 72 -80 127 -212 127 -305 l0 -23 -359 -1 c-223 0 -362
3 -366 9 -3 5 -10 51 -16 102 -5 51 -14 104 -20 117 -8 19 -5 31 16 63 l26 39
-47 54 c-41 49 -51 55 -84 55 -33 0 -43 -6 -84 -55 l-47 -54 26 -39 c21 -32
24 -44 16 -63 -5 -13 -14 -66 -20 -117 -6 -51 -13 -97 -16 -102 -4 -6 -144 -9
-366 -9 l-359 1 0 23 c0 49 21 130 50 190 47 99 109 161 244 246 38 24 146 69
164 69 4 0 15 -17 25 -38 10 -21 29 -52 43 -68 l23 -29 -15 53 c-8 29 -12 57
-8 63 3 6 -14 27 -37 47 -103 86 -170 172 -205 264 -25 64 -31 69 -74 62 -70
-11 -152 33 -187 100 -21 41 -21 132 1 174 33 64 145 121 146 75 2 -114 30
-247 58 -275 4 -4 8 38 8 95 0 56 3 114 7 130 l7 27 106 0 c127 0 286 21 409
55 103 29 252 100 309 148 l39 34 65 -69 c35 -37 87 -81 116 -97z"/>
</g>
</svg>
