<svg version="1.0" xmlns="http://www.w3.org/2000/svg"
 width="150" height="150" viewBox="0 0 150 150"
 preserveAspectRatio="xMidYMid meet">
<metadata>
Created by potrace 1.15, written by Peter Selinger 2001-2017
</metadata>
<g transform="translate(0.000000,150.000000) scale(0.100000,-0.100000)"
fill="#000000" stroke="none">
<path d="M733 453 c-15 -6 -18 -93 -3 -93 6 0 10 -11 10 -25 0 -14 -4 -25 -9
-25 -6 0 -9 -8 -9 -17 0 -10 -3 -30 -7 -45 -7 -28 -6 -28 38 -28 41 0 45 3 52
27 3 15 10 30 15 33 13 8 23 90 11 90 -11 0 -76 62 -82 78 -2 5 -10 7 -16 5z"/>
<path d="M1256 418 c-37 -38 -38 -42 -33 -91 4 -28 10 -53 15 -56 5 -3 12 -16
16 -27 6 -19 16 -22 69 -26 66 -4 98 -23 112 -67 4 -15 15 -21 36 -21 l29 0 0
85 c0 84 0 85 -27 91 -34 9 -51 25 -45 42 2 6 -4 12 -13 12 -12 0 -15 -5 -11
-16 5 -12 2 -15 -10 -10 -8 3 -18 6 -20 6 -13 0 -1 18 15 23 12 3 19 13 19 32
0 20 -3 24 -10 14 -8 -12 -10 -12 -15 0 -4 11 -7 11 -13 0 -6 -9 -16 -5 -36
19 -16 18 -31 32 -34 31 -3 0 -22 -18 -44 -41z"/>
</g>
</svg>
