<svg version="1.0" xmlns="http://www.w3.org/2000/svg"
 width="32" height="32" viewBox="0 0 32 32"
 preserveAspectRatio="xMidYMid meet">
<g transform="translate(0.000000,32.000000) scale(0.100000,-0.100000)"
fill="#000000" stroke="none">
<path d="M75 246 c-15 -11 -17 -22 -12 -68 6 -62 3 -69 -35 -85 -58 -26 -29
-33 132 -33 103 0 160 4 160 10 0 6 -16 20 -35 31 -36 22 -43 33 -25 44 6 3 8
17 5 31 -3 13 -7 35 -10 48 -6 28 -29 40 -54 26 -24 -12 -37 -86 -19 -107 10
-12 9 -18 -6 -29 -30 -21 -36 -8 -29 62 5 51 3 68 -8 75 -20 13 -42 11 -64 -5z"/>
</g>
</svg>
