<svg version="1.0" xmlns="http://www.w3.org/2000/svg"
 width="200" height="200" viewBox="0 0 200 200"
 preserveAspectRatio="xMidYMid meet">
<g transform="translate(0.000000,200.000000) scale(0.100000,-0.100000)"
fill="#000000" stroke="none">
<path d="M795 1984 c-22 -8 -44 -16 -50 -18 -25 -9 -31 -13 -59 -38 -16 -15
-33 -25 -38 -22 -4 3 -8 -2 -8 -10 0 -9 -7 -16 -16 -16 -8 0 -13 -4 -10 -9 3
-5 -1 -14 -10 -21 -27 -23 -83 -128 -107 -203 -39 -116 -46 -145 -62 -267 -29
-218 -42 -271 -71 -302 -43 -44 -108 -70 -208 -83 l-91 -12 55 -27 c35 -18 79
-30 120 -34 61 -5 63 -6 30 -14 -19 -4 -52 -5 -72 -2 l-37 6 11 -39 c22 -81
85 -133 163 -133 24 0 35 -5 35 -14 0 -20 -18 -30 -70 -36 l-45 -6 48 -47 c26
-26 66 -55 89 -64 l41 -16 -34 -13 c-19 -7 -61 -20 -94 -30 -160 -46 -221
-118 -289 -341 -22 -70 -21 -75 16 -109 75 -69 -6 -64 968 -64 l880 0 38 24
c20 13 43 31 51 40 7 8 16 14 20 12 33 -21 -46 190 -108 289 -49 78 -105 123
-184 145 -40 12 -101 30 -137 41 -36 10 -71 19 -78 19 -17 0 -15 9 11 44 91
126 129 313 108 535 -17 176 -47 333 -82 431 -21 58 -60 141 -70 150 -3 3 -20
26 -37 52 -64 94 -178 171 -300 202 -79 20 -260 20 -317 0z m389 -348 c57 -44
121 -137 145 -208 38 -119 37 -247 -5 -438 -16 -73 -18 -76 -81 -128 -63 -53
-64 -54 -123 -50 -33 1 -60 2 -60 1 0 -2 17 -11 37 -21 l36 -19 -44 -26 c-143
-84 -206 -69 -371 91 -98 95 -98 96 -117 287 -26 265 -27 260 44 272 28 4 43
1 65 -15 l28 -21 29 47 28 47 5 -69 5 -69 49 74 c27 41 87 129 133 197 l84
123 37 -22 c20 -13 55 -36 76 -53z m-314 -935 c76 -35 155 -22 241 40 25 17
37 19 84 14 l55 -7 0 -57 c0 -43 -22 -130 -92 -363 l-93 -308 -117 0 c-65 0
-118 3 -118 6 0 3 -23 131 -51 284 -49 274 -50 280 -35 331 9 29 16 70 16 91
l0 39 33 -25 c18 -14 53 -34 77 -45z"/>
</g>
</svg>
