<svg version="1.0" xmlns="http://www.w3.org/2000/svg"
 width="64" height="64" viewBox="0 0 64 64"
 preserveAspectRatio="xMidYMid meet">
<g transform="translate(0.000000,64.000000) scale(0.100000,-0.100000)"
fill="#000000" stroke="none">
<path d="M201 606 c-34 -35 -64 -113 -76 -201 -9 -63 -18 -74 -68 -82 -32 -5
-37 -8 -26 -17 8 -6 15 -18 17 -26 2 -8 11 -22 21 -30 10 -9 16 -21 13 -28 -2
-7 7 -21 19 -31 l23 -19 -31 -6 c-18 -4 -37 -14 -43 -22 -7 -7 -17 -11 -24 -7
-6 3 -8 3 -4 -2 4 -4 1 -20 -7 -36 -18 -34 -19 -71 -3 -87 17 -17 599 -17 616
0 18 18 13 48 -16 97 -20 33 -38 48 -67 58 -22 7 -46 15 -53 18 -9 3 -7 15 9
47 19 37 21 53 16 128 -8 133 -46 219 -113 261 -23 14 -50 19 -101 19 -65 0
-71 -2 -102 -34z m181 -86 c38 -29 51 -71 46 -149 -4 -74 -24 -111 -60 -111
-11 0 -16 -4 -13 -10 3 -5 15 -10 26 -10 26 0 24 -25 -10 -135 l-28 -90 -39
-3 -40 -3 -15 93 c-9 51 -13 104 -9 118 6 19 1 31 -18 52 -23 25 -26 37 -26
100 -1 67 1 73 19 73 11 0 26 4 33 8 8 6 12 2 12 -10 0 -10 16 6 38 39 20 32
42 58 48 58 6 0 23 -9 36 -20z"/>
</g>
</svg>
