<svg version="1.0" xmlns="http://www.w3.org/2000/svg"
 width="100" height="100" viewBox="0 0 100 100"
 preserveAspectRatio="xMidYMid meet">
<g transform="translate(0.000000,100.000000) scale(0.100000,-0.100000)"
fill="#000000" stroke="none">
<path d="M371 985 c-39 -22 -85 -70 -105 -111 -10 -22 -22 -46 -26 -54 -4 -9
-15 -68 -25 -130 -9 -63 -22 -125 -27 -136 -13 -28 -51 -46 -113 -54 l-50 -6
30 -15 c21 -10 29 -20 27 -35 -4 -28 41 -74 73 -74 14 0 25 -4 25 -10 0 -5
-11 -10 -25 -10 -35 0 -31 -14 10 -46 l36 -27 -53 -18 c-63 -22 -106 -67 -131
-137 -22 -64 -22 -74 6 -100 23 -22 25 -22 478 -22 l456 0 23 25 23 24 -18 48
c-44 117 -89 158 -190 177 -22 4 -43 10 -47 13 -5 2 4 25 19 51 27 46 28 51
28 197 0 149 -5 178 -44 283 -23 63 -83 127 -146 156 -44 21 -68 26 -132 25
-44 -1 -88 -7 -102 -14z m216 -164 c46 -34 83 -102 91 -167 2 -25 -1 -79 -8
-120 -11 -66 -17 -78 -45 -100 -18 -13 -44 -24 -60 -24 -23 0 -25 -2 -15 -15
10 -12 6 -17 -23 -31 -54 -26 -97 -13 -162 49 l-54 52 -11 90 c-15 129 -14
134 16 141 14 4 30 2 37 -5 9 -9 16 -6 29 11 l18 23 0 -35 c0 -34 2 -31 65 63
36 53 69 97 74 97 4 0 26 -13 48 -29z m-111 -481 c16 0 44 9 63 21 18 11 42
19 54 17 44 -7 43 -28 -9 -199 l-50 -164 -60 -3 -59 -3 -25 143 c-19 110 -23
153 -16 185 l10 42 32 -19 c17 -11 44 -20 60 -20z"/>
</g>
</svg>
