<svg version="1.0" xmlns="http://www.w3.org/2000/svg"
 width="400" height="400" viewBox="0 0 400 400"
 preserveAspectRatio="xMidYMid meet">
<g transform="translate(0.000000,400.000000) scale(0.100000,-0.100000)"
fill="#000000" stroke="none">
<path d="M1670 3981 c-75 -17 -88 -21 -147 -47 -17 -8 -34 -14 -38 -14 -15 0
-174 -113 -213 -152 -66 -65 -153 -194 -206 -303 -41 -85 -101 -245 -111 -297
-2 -9 -10 -43 -19 -75 -22 -85 -29 -116 -32 -133 -1 -8 -7 -44 -14 -80 -16
-90 -27 -172 -44 -335 -23 -212 -45 -309 -75 -333 -9 -7 -14 -15 -11 -17 10
-9 -57 -79 -106 -111 -86 -55 -253 -103 -364 -105 -30 0 -75 -4 -99 -7 l-44
-7 74 -37 c123 -61 243 -97 331 -99 l53 -1 -75 -14 c-52 -10 -94 -11 -137 -6
-72 10 -73 8 -48 -66 62 -179 174 -262 350 -262 l57 0 -7 -27 c-3 -16 -17 -39
-31 -53 -22 -23 -32 -25 -108 -25 l-84 0 25 -34 c14 -18 46 -52 71 -75 25 -22
53 -49 63 -58 11 -10 19 -16 19 -13 0 3 17 -5 37 -18 21 -13 62 -34 91 -47
l53 -24 -33 -12 c-18 -7 -60 -20 -93 -29 -69 -20 -103 -31 -233 -71 -182 -57
-325 -205 -408 -424 -11 -30 -23 -62 -26 -70 -4 -8 -20 -62 -38 -120 -17 -58
-36 -115 -41 -128 -15 -39 -11 -52 36 -98 25 -24 45 -47 45 -51 1 -10 82 -62
134 -85 36 -17 142 -18 1773 -18 l1735 0 52 26 c47 23 89 52 141 95 87 73 81
63 66 106 -7 21 -22 57 -32 80 -19 41 -40 93 -44 103 -24 71 -129 275 -182
353 -97 142 -190 214 -328 251 -33 10 -78 22 -100 28 -22 6 -53 14 -70 19 -16
5 -57 16 -90 25 -33 9 -71 20 -85 24 -14 5 -41 12 -60 16 -87 17 -87 15 -27
96 115 155 172 307 217 578 13 80 7 544 -8 650 -6 41 -18 122 -27 180 -8 58
-19 125 -24 150 -5 25 -14 72 -20 105 -7 33 -16 71 -20 85 -5 14 -17 52 -26
85 -43 152 -142 368 -212 463 -13 17 -22 32 -20 32 7 0 -41 54 -118 132 -70
72 -193 168 -214 168 -6 0 -11 4 -11 8 0 4 -16 14 -35 21 -19 7 -35 16 -35 20
0 4 -6 8 -12 8 -7 1 -47 13 -88 28 -121 44 -210 57 -400 61 -139 2 -191 -1
-250 -15z m578 -624 c153 -96 286 -235 357 -374 75 -149 105 -285 105 -485 0
-191 -24 -365 -87 -635 -6 -25 -34 -54 -123 -129 -63 -52 -126 -100 -140 -106
-15 -6 -68 -8 -135 -4 -122 6 -122 5 -13 -54 l47 -26 -67 -44 c-85 -57 -222
-109 -284 -110 -53 0 -171 39 -233 78 -62 39 -190 150 -307 269 -91 92 -109
115 -117 153 -35 161 -70 494 -74 714 l-2 140 33 22 c69 47 171 43 231 -11
l36 -33 54 94 c30 51 56 92 58 90 2 -2 7 -65 11 -141 l7 -137 245 364 c134
200 253 377 265 395 24 38 24 38 133 -30z m-617 -1896 c86 -61 172 -93 259
-99 71 -4 82 -2 170 35 52 21 128 60 168 87 66 44 75 47 103 37 17 -6 60 -14
95 -17 36 -4 66 -10 69 -13 2 -4 5 -56 6 -116 2 -102 0 -118 -34 -225 -20 -63
-95 -311 -167 -550 -72 -239 -140 -463 -151 -497 l-21 -63 -232 0 -232 0 -37
203 c-53 296 -167 930 -170 942 -1 6 8 35 20 65 27 67 43 154 43 233 l0 59 28
-21 c15 -12 52 -39 83 -60z"/>
</g>
</svg>
