<svg version="1.0" xmlns="http://www.w3.org/2000/svg" width="32" height="32" viewBox="0 0 320 320" preserveAspectRatio="xMidYMid meet">
<g id="layer101" fill="#5d5d5d" stroke="none">
 <path d="M122 244 c-12 -8 -20 -20 -16 -26 4 -6 10 -6 17 1 6 6 24 11 39 11 22 0 28 -5 28 -21 0 -27 19 -61 30 -54 15 9 0 68 -22 88 -25 21 -47 22 -76 1z"/>
 <path d="M95 180 c-13 -14 -15 -24 -8 -31 7 -7 15 -2 26 15 21 31 6 43 -18 16z"/>
 <path d="M216 133 c-3 -3 -6 -17 -6 -30 0 -15 -6 -23 -17 -23 -9 0 -25 -7 -35 -17 -17 -15 -19 -15 -37 1 -11 10 -17 24 -15 31 7 16 -12 29 -21 15 -4 -6 -2 -17 4 -24 6 -7 9 -15 6 -18 -3 -2 6 -15 20 -28 20 -19 27 -21 40 -10 8 7 13 16 10 20 -3 5 4 6 14 3 23 -6 61 29 61 56 0 21 -13 34 -24 24z"/>
 </g>
<g id="layer102" fill="#fbfbfb" stroke="none">
 <path d="M116 231 c-10 -11 -15 -24 -12 -30 4 -6 0 -21 -9 -35 -21 -32 -11 -87 21 -117 23 -21 25 -22 44 -4 10 9 26 15 34 12 22 -9 39 28 33 72 -8 56 -19 95 -30 109 -15 18 -62 14 -81 -7z"/>
 </g>
<g id="layer103" fill="#020202" stroke="none">
 <path d="M0 282 c0 -48 29 -82 70 -82 16 0 32 -5 35 -10 4 -6 2 -9 -3 -8 -9 3 -12 -2 -12 -19 0 -3 9 2 19 11 11 10 17 25 14 33 -13 33 46 44 74 14 10 -10 33 -19 50 -19 41 -1 73 36 73 84 l0 34 -160 0 -160 0 0 -38z"/>
 <path d="M214 156 c-4 -10 -2 -22 4 -28 8 -8 13 -7 18 6 4 10 2 22 -4 28 -8 8 -13 7 -18 -6z"/>
 <path d="M76 143 c-12 -13 -6 -99 10 -121 13 -18 25 -22 72 -22 53 0 59 2 75 29 9 16 17 36 17 44 0 24 -22 32 -35 14 -7 -10 -22 -17 -33 -17 -12 0 -25 -8 -31 -17 -14 -26 -40 0 -47 49 -7 39 -16 53 -28 41z"/>
 </g>
</svg>