<svg version="1.0" xmlns="http://www.w3.org/2000/svg"
 width="64" height="64" viewBox="0 0 64 64"
 preserveAspectRatio="xMidYMid meet">
<g transform="translate(0.000000,64.000000) scale(0.100000,-0.100000)"
fill="#000000" stroke="none">
<path d="M223 618 c-51 -57 -56 -73 -48 -166 8 -107 23 -172 42 -179 9 -3 11
-13 7 -27 -9 -28 -3 -25 -75 -37 -80 -13 -101 -26 -128 -82 -23 -48 -27 -97
-9 -115 17 -17 599 -17 616 0 17 17 15 39 -9 95 -29 69 -54 91 -108 98 -83 11
-88 13 -94 42 -3 18 0 31 9 36 8 5 14 23 14 43 0 19 5 66 11 104 15 86 6 131
-33 175 -29 34 -32 35 -102 35 -62 0 -75 -3 -93 -22z m94 -78 c23 -20 44 -30
67 -30 46 0 59 -31 50 -124 -4 -39 -11 -80 -17 -91 -6 -11 -11 -40 -12 -65 0
-42 -2 -46 -38 -64 -33 -16 -45 -17 -78 -7 -21 6 -45 21 -53 33 -13 18 -13 25
-1 48 13 26 13 29 -6 41 -39 27 -51 147 -20 215 16 34 53 74 69 74 3 0 20 -13
39 -30z"/>
</g>
</svg>
