<svg version="1.0" xmlns="http://www.w3.org/2000/svg"
 width="200" height="200" viewBox="0 0 200 200"
 preserveAspectRatio="xMidYMid meet">
<g transform="translate(0.000000,200.000000) scale(0.100000,-0.100000)"
fill="#000000" stroke="none">
<path d="M845 1986 c-59 -18 -94 -34 -122 -56 -14 -11 -30 -17 -37 -13 -6 3
-8 3 -4 -2 4 -4 -11 -28 -33 -52 -22 -25 -53 -70 -67 -101 -25 -52 -27 -70
-30 -199 -2 -87 1 -149 7 -161 6 -11 13 -76 15 -144 4 -121 37 -320 58 -345 5
-7 30 -25 55 -40 44 -27 44 -29 39 -71 -3 -23 -15 -60 -26 -82 -16 -32 -26
-40 -57 -45 -21 -4 -49 -10 -63 -15 -14 -5 -38 -11 -55 -14 -16 -3 -73 -15
-125 -27 -52 -11 -108 -23 -125 -26 -105 -18 -184 -123 -242 -320 -14 -48 -26
-112 -27 -142 -1 -54 -1 -55 49 -93 l50 -38 895 0 895 0 50 38 c46 35 50 42
49 78 -1 64 -92 282 -168 402 -24 38 -91 90 -103 79 -3 -3 -15 -2 -27 3 -13 4
-40 11 -62 15 -90 15 -208 38 -310 60 -22 5 -24 11 -40 146 -6 41 -4 48 23 70
16 13 32 30 36 36 13 21 27 120 42 302 8 95 19 178 24 185 23 27 33 133 21
207 -29 178 -146 323 -296 367 -52 15 -235 13 -289 -2z m131 -293 c42 -48 66
-66 109 -82 66 -25 146 -27 179 -6 21 14 24 13 39 -2 8 -10 28 -54 43 -98 l27
-80 -12 -184 c-15 -224 -26 -289 -54 -320 -46 -49 -168 -142 -219 -166 -96
-45 -151 -29 -334 96 -118 82 -112 71 -138 250 -28 192 -14 350 41 466 30 64
109 153 177 199 l51 34 18 -22 c10 -13 43 -51 73 -85z m303 -1059 c-13 -43
-64 -88 -134 -121 -52 -24 -73 -28 -150 -28 -79 0 -97 4 -147 28 -58 28 -148
116 -148 144 0 8 7 27 15 43 8 16 21 52 28 80 l13 50 54 -37 c64 -43 159 -83
197 -83 38 0 137 50 198 99 l50 40 17 -92 c12 -66 14 -101 7 -123z"/>
</g>
</svg>
