<svg version="1.0" xmlns="http://www.w3.org/2000/svg"
 width="200" height="200" viewBox="0 0 200 200"
 preserveAspectRatio="xMidYMid meet">
<g transform="translate(0.000000,200.000000) scale(0.100000,-0.100000)"
fill="#000000" stroke="none">
<path d="M825 1979 c-235 -73 -399 -262 -448 -514 -16 -78 -5 -245 19 -316 10
-30 19 -56 19 -59 14 -52 99 -173 168 -236 l66 -60 -82 -28 c-102 -34 -156
-60 -229 -109 -32 -21 -58 -35 -58 -31 0 7 -157 -150 -180 -181 -66 -87 -100
-202 -100 -339 l0 -106 1000 0 1000 0 0 108 c0 139 -30 238 -100 336 -21 29
-180 190 -180 182 0 -4 -26 10 -57 31 -74 49 -128 75 -230 109 l-82 28 66 60
c69 63 154 184 168 236 0 3 9 29 19 59 36 104 35 292 -2 406 -67 209 -241 377
-448 431 -79 20 -253 17 -329 -7z"/>
</g>
</svg>
