<svg enable-background="new 0 0 40 40" height="32" viewBox="0 0 40 40" width="32" xmlns="http://www.w3.org/2000/svg"><path d="m4.5 21.5v-8.412l3.851-10.588h23.298l3.851 10.588v8.412z" fill="#f5ce85"/><path d="m31.3 3 3.7 10.176v7.824h-30v-7.824l3.7-10.176zm.7-1h-24l-4 11v9h32v-9z" fill="#967a44"/><path d="m7 19h26v-5.471l-3.101-8.529h-19.798l-3.101 8.529z" fill="#deb974"/><path d="m4.5 37.5v-24h10.022c.253 2.8 2.613 5 5.478 5s5.225-2.2 5.478-5h10.022v24z" fill="#f5ce85"/><path d="m35 14v23h-30v-23h9.083c.477 2.834 2.949 5 5.917 5s5.439-2.166 5.917-5zm1-1h-11c0 2.761-2.239 5-5 5s-5-2.239-5-5h-11v25h32z" fill="#967a44"/><circle cx="20" cy="28" fill="#fff" r="6.5"/><path d="m20 22c3.308 0 6 2.692 6 6s-2.692 6-6 6-6-2.692-6-6 2.692-6 6-6m0-1c-3.866 0-7 3.134-7 7s3.134 7 7 7 7-3.134 7-7-3.134-7-7-7z" fill="#ba9b48"/><path d="m22.706 24.002-2.706 3.998 2.262 2.262" fill="none" stroke="#66798f" stroke-miterlimit="10"/><circle cx="20" cy="28" fill="#66798f" r="1"/></svg>