<svg enable-background="new 0 0 40 40" height="400" viewBox="0 0 40 40" width="400" xmlns="http://www.w3.org/2000/svg"><path d="m1.516 29.5c.283-4.455 4.316-8 9.234-8h6.5c4.918 0 8.952 3.545 9.234 8z" fill="#8bb7f0"/><path d="m17.25 22c4.454 0 8.142 3.059 8.682 7h-23.864c.54-3.941 4.228-7 8.682-7zm0-1h-6.5c-5.385 0-9.75 4.029-9.75 9h26c0-4.971-4.365-9-9.75-9z" fill="#4e7ab5"/><path d="m14 23.5c-2.362 0-3.322-1.994-3.5-2.418v-4.255h7v4.255c-.178.424-1.138 2.418-3.5 2.418z" fill="#deb974"/><path d="m17 17.328v3.649c-.225.486-1.087 2.023-3 2.023-1.917 0-2.779-1.543-3-2.023v-3.649zm1-1h-8v4.849s1.014 2.823 4 2.823 4-2.823 4-2.823z" fill="#967a44"/><path d="m19.357 14.786c-.906 0-1.643-.737-1.643-1.644 0-.905.737-1.643 1.643-1.643 1.518 0 1.643.439 1.643.929 0 .987-.828 2.358-1.643 2.358zm-10.714 0c-.815 0-1.643-1.371-1.643-2.357 0-.49.125-.929 1.643-.929.906 0 1.643.737 1.643 1.643s-.737 1.643-1.643 1.643z" fill="#deb974"/><path d="m19.357 12c1.143 0 1.143.218 1.143.429 0 .82-.709 1.857-1.143 1.857-.63 0-1.143-.513-1.143-1.143s.513-1.143 1.143-1.143m-10.714 0c.63 0 1.143.513 1.143 1.143s-.513 1.143-1.143 1.143c-.434 0-1.143-1.038-1.143-1.857 0-.211 0-.429 1.143-.429m10.714-1c-1.183 0-2.143.959-2.143 2.143s.959 2.143 2.143 2.143 2.143-1.674 2.143-2.857c0-1.184-.959-1.429-2.143-1.429zm-10.714 0c-1.184 0-2.143.245-2.143 1.429 0 1.183.959 2.857 2.143 2.857s2.143-.959 2.143-2.143-.96-2.143-2.143-2.143z" fill="#967a44"/><path d="m14 20.5c-.517 0-1-.212-1.36-.597l-.092-.099-.129-.038c-2.308-.692-3.919-2.857-3.919-5.266v-6.974c0-1.301 1.059-2.359 2.359-2.359h6.281c1.301 0 2.359 1.059 2.359 2.359v6.974c0 2.409-1.611 4.574-3.918 5.267l-.129.038-.092.099c-.36.384-.843.596-1.36.596z" fill="#f5ce85"/><path d="m17.141 5.667c1.025 0 1.859.834 1.859 1.86v6.973c0 2.19-1.465 4.159-3.562 4.788l-.258.078-.184.197c-.265.282-.619.437-.996.437s-.731-.155-.995-.438l-.184-.197-.258-.078c-2.098-.628-3.563-2.597-3.563-4.787v-6.974c0-1.025.834-1.86 1.859-1.86h6.282m0-.999h-6.281c-1.58 0-2.86 1.28-2.86 2.859v6.974c0 2.714 1.803 5.004 4.275 5.745.432.462 1.043.755 1.725.755s1.293-.293 1.725-.755c2.472-.741 4.275-3.031 4.275-5.745v-6.974c0-1.579-1.28-2.859-2.859-2.859z" fill="#967a44"/><path d="m20 20.5c-1.337 0-2.588-.888-3.216-1.419.921-.766 2.716-2.704 2.716-6.171v-2.397c0-2.742-2.294-4.104-2.392-4.16l-.477-.276-.23.503c-.049.107-1.245 2.645-4.613 3.11-1.411.195-3.288.741-3.288 3.22 0 3.662 1.774 5.496 2.713 6.209-.587.526-1.765 1.381-3.22 1.381-1.743 0-2.767-.368-3.267-.625.632-.865 1.917-2.839 1.917-4.59 0-.732-.162-1.483-.333-2.277-.188-.867-.381-1.765-.381-2.716 0-5.503 3.741-8.792 7.357-8.792 2.68 0 3.846 1.882 3.857 1.9l.146.242h.282c2.167 0 4.5 1.634 4.5 5.221 0 1.155-.197 2.384-.389 3.572-.167 1.042-.326 2.026-.326 2.85 0 1.587 1.266 3.065 1.929 3.729-.564.528-1.796 1.486-3.285 1.486z" fill="#a6714e"/><path d="m13.286 2c2.357 0 3.391 1.599 3.429 1.659l.292.484h.565c1.927 0 4 1.477 4 4.721 0 1.115-.194 2.324-.382 3.492-.171 1.063-.332 2.067-.332 2.93 0 1.507.968 2.873 1.704 3.695-.589.465-1.51 1.019-2.562 1.019-.923 0-1.822-.5-2.444-.949 1.028-1.017 2.444-2.989 2.444-6.141v-2.397c0-3.027-2.533-4.531-2.641-4.593l-.96-.557-.454 1.012c-.011.024-1.105 2.387-4.225 2.818-.92.128-3.72.514-3.72 3.717 0 3.309 1.391 5.227 2.433 6.2-.583.428-1.443.89-2.44.89-1.161 0-1.972-.17-2.5-.345.703-1.05 1.649-2.762 1.649-4.37 0-.786-.167-1.562-.345-2.383-.182-.842-.37-1.712-.37-2.61.002-5.19 3.488-8.292 6.859-8.292m0-1c-4.068 0-7.857 3.671-7.857 9.292 0 1.887.714 3.54.714 4.994 0 2.119-2.143 4.714-2.143 4.714s1.046 1 3.993 1c2.362 0 4.007-1.961 4.007-1.961s-3-1.508-3-6.129c0-1.936 1.274-2.508 2.857-2.726 3.704-.512 5-3.399 5-3.399s2.143 1.243 2.143 3.728v2.397c0 4.333-3 6.129-3 6.129s1.866 1.961 4 1.961c2.312 0 4-2 4-2s-2.143-1.819-2.143-3.715c0-1.685.714-4.189.714-6.422 0-3.787-2.513-5.721-5-5.721 0 .001-1.292-2.142-4.285-2.142z" fill="#7a4f34"/><path d="m9.512 38.5c.268-5.559 4.982-10 10.738-10h7.5c5.756 0 10.47 4.441 10.738 10z" fill="#c2e8ff"/><path d="m27.75 29c5.306 0 9.683 3.954 10.199 9h-27.898c.516-5.046 4.893-9 10.199-9zm0-1h-7.5c-6.213 0-11.25 4.925-11.25 11h30c0-6.075-5.037-11-11.25-11z" fill="#7496c4"/><path d="m24 31.5c-3.076 0-4.296-2.625-4.5-3.122v-5.469h9v5.469c-.204.497-1.424 3.122-4.5 3.122z" fill="#ffdea3"/><path d="m28 23.41v4.865c-.263.59-1.393 2.725-4 2.725-2.611 0-3.741-2.141-4-2.725v-4.865zm1-1h-10v6.062s1.267 3.529 5 3.529 5-3.529 5-3.529z" fill="#967a44"/><path d="m30.429 20.643c-1.143 0-2.072-.929-2.072-2.071s.929-2.071 2.072-2.071c1.725 0 2.071.465 2.071 1.214 0 1.251-1.024 2.928-2.071 2.928zm-12.858 0c-1.047 0-2.071-1.677-2.071-2.929 0-.749.347-1.214 2.071-1.214 1.143 0 2.072.929 2.072 2.071s-.929 2.072-2.072 2.072z" fill="#ffdea3"/><path d="m30.429 17c1.571 0 1.571.363 1.571.714 0 1.044-.896 2.429-1.571 2.429-.867 0-1.571-.705-1.571-1.571s.704-1.572 1.571-1.572m-12.858 0c.867 0 1.571.705 1.571 1.571s-.705 1.571-1.571 1.571c-.676 0-1.571-1.385-1.571-2.429 0-.35 0-.713 1.571-.713m12.858-1c-1.42 0-2.571 1.151-2.571 2.571s1.151 2.571 2.571 2.571 2.571-2.008 2.571-3.428-1.151-1.714-2.571-1.714zm-12.858 0c-1.42 0-2.571.294-2.571 1.714s1.151 3.429 2.571 3.429 2.571-1.151 2.571-2.571-1.15-2.572-2.571-2.572z" fill="#967a44"/><path d="m24 27.5c-.581 0-1.134-.224-1.56-.631l-.09-.086-.12-.034c-2.785-.786-4.73-3.356-4.73-6.249v-8.136c0-1.564 1.272-2.837 2.836-2.837h7.328c1.564 0 2.836 1.272 2.836 2.837v8.136c0 2.893-1.945 5.463-4.73 6.249l-.12.034-.09.086c-.426.407-.979.631-1.56.631z" fill="#ffdea3"/><path d="m27.664 10.028c1.288 0 2.336 1.048 2.336 2.336v8.136c0 2.67-1.796 5.042-4.367 5.768l-.239.068-.18.172c-.332.317-.763.492-1.214.492s-.882-.175-1.214-.492l-.18-.172-.239-.068c-2.571-.726-4.367-3.098-4.367-5.768v-8.136c0-1.288 1.048-2.336 2.336-2.336zm0-1h-7.328c-1.842 0-3.336 1.494-3.336 3.336v8.136c0 3.205 2.156 5.9 5.095 6.731.496.474 1.165.769 1.905.769s1.409-.295 1.905-.769c2.939-.831 5.095-3.526 5.095-6.731v-8.136c0-1.843-1.494-3.336-3.336-3.336z" fill="#967a44"/><path d="m30.5 18.5v-3.5c0-3.484-2.217-4.425-2.312-4.463l-.342-.14-.234.287c-.023.029-2.329 2.816-5.612 2.816-.264 0-.53-.009-.791-.017-.265-.009-.526-.017-.778-.017-.877 0-2.931 0-2.931 2.533v2.5h-.214c-.44-.773-1.786-3.349-1.786-5.924 0-4.754 3.495-8.075 8.5-8.075 3.078 0 4.499 2.621 4.557 2.732l.119.226.253.037c1.533.22 3.571 1.029 3.571 5.505 0 2.334-1.337 4.763-1.778 5.5z" fill="#f5ce85"/><path d="m24 5c2.762 0 4.062 2.367 4.114 2.463l.237.454.507.073c1.463.209 3.142.968 3.142 5.01 0 1.395-.515 2.842-1 3.894v-1.894c0-3.816-2.516-4.883-2.623-4.926l-.687-.279-.467.577c-.022.025-2.163 2.628-5.223 2.628-.259 0-.519-.008-.775-.017-.27-.009-.536-.017-.794-.017-.849 0-3.431 0-3.431 3.034v.807c-.486-1.122-1-2.677-1-4.23 0-4.462 3.29-7.577 8-7.577m0-1c-5.36 0-9 3.667-9 8.576 0 3.252 2 6.424 2 6.424h1s0-2.105 0-3c0-1.791 1.085-2.034 2.431-2.034.501 0 1.038.034 1.569.034 3.573 0 6-3 6-3s2 .813 2 4v4h1s2-3.037 2-6c0-4.161-1.703-5.671-4-6 0 0-1.566-3-5-3z" fill="#967a44"/></svg>