<?xml version="1.0" encoding="utf-8"?>
<!-- Generator: Adobe Illustrator 18.0.0, SVG Export Plug-In . SVG Version: 6.00 Build 0)  -->
<!DOCTYPE svg PUBLIC "-//W3C//DTD SVG 1.1//EN" "http://www.w3.org/Graphics/SVG/1.1/DTD/svg11.dtd">
<svg xmlns="http://www.w3.org/2000/svg"  version="1.1" id="Слой_1" x="0px" y="0px" viewBox="0 0 128 128" enable-background="new 0 0 128 128" xml:space="preserve" width="128px" height="128px">
<g>
    <g>
        <path fill="#F7F7FB" d="M116.2,64.4L116.2,64.4c-24.8,37.2-79.5,37.2-104.3,0l0,0l0,0C36.7,27.2,91.3,27.2,116.2,64.4L116.2,64.4z    "/>
    </g>
    <g>
        <path fill="#FFFFFF" d="M20.5,73.1L20.5,73.1c21.2-31.8,64.2-36.4,91.8-13.8C86.1,27.3,35.5,29,11.8,64.4l0,0l0,0    c3.6,5.4,7.8,10,12.5,13.8C23,76.6,21.7,74.9,20.5,73.1L20.5,73.1z"/>
    </g>
    <g>
        <path fill="#7CA5C6" d="M81.8,39.2c5.1,4.8,8.3,11.5,8.3,19.1c0,14.4-11.7,26.1-26.1,26.1c-14.4,0-26.1-11.7-26.1-26.1    c0-7.7,3.4-14.6,8.7-19.4C58.8,34.7,70.5,34.5,81.8,39.2z"/>
    </g>
    <g opacity="0.1">
        <path fill="#0C0F13" d="M81.8,39.2c-7.1-2.9-14.4-3.9-21.8-3.3c4.4,0.4,8.8,1.5,13.1,3.3c5.1,4.8,8.3,11.5,8.3,19.1    c0,12.9-9.4,23.6-21.7,25.7c1.4,0.2,2.9,0.4,4.3,0.4c14.4,0,26.1-11.7,26.1-26.1C90.1,50.7,86.9,43.9,81.8,39.2z"/>
    </g>
    <g>
        <circle fill="#E5E6E6" cx="64" cy="58.3" r="6.5"/>
    </g>
    <g>
        <path fill="#454B54" d="M64,67.7c-5.2,0-9.4-4.2-9.4-9.4s4.2-9.4,9.4-9.4s9.4,4.2,9.4,9.4S69.2,67.7,64,67.7z"/>
    </g>
    <g>
        <path fill="#FFFFFF" d="M56.4,56.4c-3.1,0-5.7-2.6-5.7-5.7s2.6-5.7,5.7-5.7s5.7,2.6,5.7,5.7S59.6,56.4,56.4,56.4z"/>
    </g>
    <g>
        <path fill="#454B54" d="M118.7,62.7C106.4,44.4,86,33.5,64,33.5c-22,0-42.4,10.9-54.7,29.2c-0.7,1-0.7,2.3,0,3.3    C21.6,84.4,42,95.3,64,95.3c22,0,42.4-10.9,54.7-29.2C119.3,65,119.3,63.7,118.7,62.7z M80.1,41.7c4.5,4.4,6.9,10.2,6.9,16.5    c0,12.7-10.4,23.1-23.1,23.1c-12.7,0-23.1-10.4-23.1-23.1c0-6.2,2.5-12.2,7-16.5c5.2-1.4,10.6-2.2,16.1-2.2    C69.5,39.5,74.9,40.3,80.1,41.7C80.1,41.7,80.1,41.7,80.1,41.7z M64,89.3c-19.3,0-37.3-9.3-48.5-24.9c5.9-8.2,13.6-14.6,22.4-18.9    c-1.9,3.9-2.9,8.3-2.9,12.7c0,16,13,29.1,29.1,29.1c16,0,29.1-13,29.1-29.1c0-4.4-1-8.8-2.9-12.7c8.8,4.3,16.5,10.7,22.4,18.9    C101.3,80,83.3,89.3,64,89.3z"/>
    </g>
</g>
</svg>
