<svg height="80" viewBox="0 0 64 64" width="80" xmlns="http://www.w3.org/2000/svg"><path d="m32 5.089844c-17.09375 0-31 11.117187-31 24.785156 0 8.597656 5.386719 16.390625 14.441406 20.964844-.167968 2.269531-.785156 6.058594-2.910156 9.605469-.199219.332031-.183594.75.042969 1.0625.183594.257812.480469.402343.785156.402343.070313 0 .140625-.007812.210938-.019531 7.335937-1.632812 10.773437-5.8125 12.015625-7.765625 2.117187.359375 4.273437.539063 6.414062.539063 17.09375 0 31-11.121094 31-24.785157 0-13.671875-13.90625-24.789062-31-24.789062z" fill="#ff0000"/><path d="m1.644531 34.949219c1.675782 6.527344 6.5625 12.238281 13.796875 15.890625-.167968 2.269531-.785156 6.058594-2.910156 9.605469-.199219.332031-.183594.75.042969 1.0625.183594.257812.480469.402343.785156.402343.070313 0 .140625-.007812.210938-.019531 7.335937-1.632812 10.773437-5.8125 12.015625-7.765625 2.117187.359375 4.273437.539063 6.414062.539063 14.890625 0 27.359375-8.4375 30.328125-19.648438.667969-2.535156-1.257812-5.015625-3.878906-5.015625h-52.914063c-2.589843 0-4.535156 2.4375-3.890625 4.949219z" fill="#ff0000"/><path d="m56 30c0-10.492187-10.746094-19-24-19s-24 8.507813-24 19c0 10.492188 10.746094 19 24 19s24-8.507812 24-19z" fill="#ffa500"/><path d="m36.929688 31.351563 1.871093 7.648437-6.800781-4.21875-6.800781 4.21875 1.871094-7.648437-6.070313-5.332032 8.039063-.730468 2.960937-7.289063 2.960938 7.289063 8.039062.730468z" fill="#f9e3ae"/><path d="m36.929688 31.351563 1.871093 7.648437-6.800781-4.21875v-16.78125l2.960938 7.289063 8.039062.730468z" fill="#f6d397"/><g fill="#8d6c9f"><path d="m32 4.171875c-17.644531 0-32 11.480469-32 25.585938 0 8.875 5.558594 16.921875 14.90625 21.640625-.171875 2.347656-.808594 6.253906-3.003906 9.914062-.207031.34375-.1875.777344.046875 1.101563.1875.261718.492187.414062.808594.414062.074218 0 .144531-.007812.21875-.023437 7.570312-1.683594 11.121093-6 12.402343-8.015625 2.1875.371093 4.414063.558593 6.621094.558593 17.644531 0 32-11.480468 32-25.585937 0-14.109375-14.355469-25.589844-32-25.589844zm0 49.171875c-2.316406 0-4.652344-.214844-6.941406-.644531-.421875-.070313-.855469.125-1.0625.503906-.671875 1.226563-3.195313 5.058594-9.28125 7.054688 1.710937-3.734375 2.136719-7.390625 2.230469-9.417969.015625-.398438-.207032-.773438-.566407-.945313-9.003906-4.332031-14.378906-11.859375-14.378906-20.136718 0-13.003907 13.457031-23.585938 30-23.585938s30 10.582031 30 23.585938c0 13.007812-13.457031 23.585937-30 23.585937z"/><path d="m31.710938 45.691406c-.550782.046875-.960938.53125-.910157 1.082032l.171875 1.992187c.042969.519531.480469.914063.992188.914063.03125 0 .058594-.003907.089844-.003907.546875-.050781.957031-.535156.910156-1.082031l-.175781-1.992187c-.046875-.550782-.515625-.976563-1.078125-.910157z"/><path d="m12.199219 36.976563-1.640625 1.144531c-.453125.316406-.5625.941406-.246094 1.394531.195313.277344.503906.425781.820313.425781.199218 0 .398437-.058593.570312-.179687l1.640625-1.144531c.453125-.316407.5625-.941407.246094-1.394532s-.9375-.5625-1.390625-.246093z"/><path d="m15.703125 41.195313-1.285156 1.53125c-.355469.421875-.300781 1.054687.121094 1.410156.1875.15625.417968.234375.644531.234375.285156 0 .566406-.121094.765625-.355469l1.285156-1.53125c.355469-.421875.300781-1.054687-.121094-1.410156-.421875-.351563-1.054687-.300781-1.410156.121094z"/><path d="m21.515625 43.882813c-.5-.230469-1.097656-.019532-1.328125.484375l-.847656 1.8125c-.234375.5-.019531 1.09375.480469 1.328125.136718.0625.28125.09375.421875.09375.378906 0 .738281-.210938.90625-.574219l.847656-1.8125c.234375-.5.019531-1.097656-.480469-1.332031z"/><path d="m26.492188 45.457031c-.542969-.097656-1.0625.269532-1.15625.8125l-.351563 1.96875c-.09375.542969.269531 1.0625.8125 1.160157.058594.007812.117188.015625.175781.015625.472657 0 .894532-.34375.980469-.828125l.351563-1.96875c.09375-.542969-.269532-1.0625-.8125-1.160157z"/><path d="m9.042969 30c0-9.925781 10.296875-18 22.957031-18 4.066406 0 8.0625.847656 11.554688 2.449219.503906.226562 1.09375.007812 1.328125-.492188.226562-.503906.007812-1.097656-.492188-1.328125-3.753906-1.71875-8.039062-2.628906-12.390625-2.628906-13.761719 0-24.957031 8.972656-24.957031 20 0 1.34375.167969 2.6875.496094 3.996094.117187.453125.523437.753906.96875.753906.082031 0 .164062-.007812.246093-.027344.535157-.136718.859375-.679687.726563-1.214843-.289063-1.148438-.4375-2.328125-.4375-3.507813z"/><path d="m54.476563 21.285156c-.285157-.472656-.902344-.625-1.375-.339843-.472657.285156-.625.902343-.339844 1.375 1.457031 2.410156 2.195312 4.996093 2.195312 7.679687 0 8.195313-7.058593 15.359375-17.167968 17.421875-.539063.109375-.890625.640625-.777344 1.179688.09375.472656.511719.800781.976562.800781.066407 0 .132813-.007813.203125-.019531 11.046875-2.257813 18.765625-10.226563 18.765625-19.382813 0-3.054687-.835937-5.984375-2.480468-8.714844z"/><path d="m50.101563 18.9375c.195312.195313.453125.296875.707031.296875.257812 0 .511719-.097656.707031-.292969.390625-.390625.394531-1.023437.003906-1.414062-.824218-.828125-1.742187-1.613281-2.722656-2.328125-.445312-.324219-1.070312-.226563-1.394531.21875-.328125.445312-.230469 1.074219.214844 1.398437.898437.65625 1.734375 1.367188 2.484375 2.121094z"/><path d="m25.730469 39.851563 6.269531-3.898438 6.269531 3.898438c.164063.097656.347657.148437.527344.148437.207031 0 .414063-.0625.589844-.191406.328125-.238281.480469-.648438.382812-1.042969l-1.722656-7.066406 5.613281-4.925781c.300782-.261719.414063-.679688.289063-1.0625-.125-.378907-.460938-.648438-.859375-.6875l-7.429688-.675782-2.734375-6.726562c-.152343-.375-.519531-.621094-.925781-.621094s-.773437.246094-.925781.621094l-2.734375 6.726562-7.429688.679688c-.398437.035156-.734375.304687-.859375.6875-.125.378906-.011718.796875.289063 1.058594l5.613281 4.925781-1.722656 7.066406c-.097656.394531.054687.808594.382812 1.046875.332032.238281.773438.25 1.117188.039063zm-2.320313-13.046875 5.71875-.519532c.375-.035156.695313-.273437.835938-.621093l2.035156-5.007813 2.035156 5.007813c.140625.347656.464844.585937.835938.617187l5.71875.523438-4.316406 3.789062c-.28125.246094-.402344.625-.3125.988281l1.285156 5.277344-4.71875-2.933594c-.164063-.101562-.34375-.152343-.527344-.152343s-.367187.050781-.527344.152343l-4.722656 2.933594 1.285156-5.277344c.089844-.363281-.03125-.742187-.308593-.988281z"/></g></svg>
