<svg height="200" viewBox="0 0 50 50" width="200" xmlns="http://www.w3.org/2000/svg"><path d="m25.875 3.3125c-4.691406.105469-7.660156 2.003906-8.9375 4.9375-1.214844 2.792969-.960937 6.3125-.09375 9.96875-.464844.546875-.847656 1.316406-.75 2.46875v.0625c.167969 1.21875.535156 2.078125 1 2.6875.226563.296875.5625.304688.84375.46875.15625 1.054688.414063 2.121094.8125 3 .226563.5.460938.933594.71875 1.3125.121094.175781.304688.289063.4375.4375v3.59375c-.320312.769531-1.082031 1.390625-2.28125 2-1.25.632813-2.882812 1.214844-4.53125 1.9375-1.648437.722656-3.316406 1.617188-4.65625 3-1.339844 1.382813-2.300781 3.261719-2.4375 5.75l-.0625 1.0625h40.125l-.0625-1.0625c-.136719-2.488281-1.097656-4.367187-2.4375-5.75-1.339844-1.382812-3.03125-2.277344-4.6875-3s-3.296875-1.300781-4.5625-1.9375c-1.214844-.609375-1.972656-1.222656-2.3125-2v-3.625c.121094-.140625.292969-.238281.40625-.40625.257813-.378906.523438-.8125.75-1.3125.394531-.871094.65625-1.925781.8125-2.96875.320313-.164062.6875-.175781.9375-.5.480469-.628906.761719-1.523437.875-2.75.089844-1.058594-.214844-1.828125-.6875-2.40625.519531-1.601562 1.136719-4.164062.9375-6.78125-.109375-1.4375-.488281-2.871094-1.34375-4.0625-.773437-1.078125-2.023437-1.816406-3.59375-2.15625-1.058594-1.414062-2.980469-1.96875-5.1875-1.96875zm.03125 2h.03125c1.996094.007813 3.273438.570313 3.6875 1.28125l.25.4375.5.0625c1.375.191406 2.128906.722656 2.6875 1.5s.878906 1.863281.96875 3.0625c.183594 2.402344-.511719 5.21875-.96875 6.5l-.3125.84375.78125.40625c-.007812.027344.320313.359375.28125 1.09375v.03125c-.09375.941406-.335937 1.472656-.5 1.6875-.167969.21875-.253906.1875-.21875.1875h-.90625l-.09375.90625c-.085937.898438-.410156 1.925781-.78125 2.75-.1875.414063-.359375.78125-.53125 1.03125s-.375.394531-.28125.34375l-.5.28125v4.625.09375.0625c0-.011719-.179687.429688-.90625.8125-.726562.382813-1.847656.6875-3.09375.6875-1.257812 0-2.371094-.285156-3.09375-.65625s-.90625-.757812-.90625-.84375c.003906-.152344-.03125-.300781-.09375-.4375v-4.34375l-.5-.28125c.09375.050781-.109375-.09375-.28125-.34375s-.375-.617187-.5625-1.03125c-.371094-.824219-.695312-1.851562-.78125-2.75l-.0625-.90625h-.84375c-.035156-.015625-.128906-.066406-.21875-.1875-.175781-.230469-.425781-.769531-.5625-1.6875 0-.019531 0-.011719 0-.03125-.003906-.015625.003906-.015625 0-.03125-.015625-.757812.453125-1.179687.375-1.125l.5625-.40625-.15625-.6875c-.921875-3.644531-1.066406-6.945312-.09375-9.1875.972656-2.234375 2.941406-3.648437 7.125-3.75zm-5 29.0625c.320313.296875.6875.542969 1.09375.75 1.078125.554688 2.457031.875 4 .875 1.554688 0 2.960938-.339844 4.03125-.90625.375-.199219.730469-.421875 1.03125-.6875.65625.6875 1.496094 1.214844 2.375 1.65625 1.449219.726563 3.101563 1.289063 4.65625 1.96875 1.554688.679688 2.980469 1.449219 4.03125 2.53125.835938.863281 1.351563 2.011719 1.625 3.4375h-35.5c.273438-1.425781.789063-2.574219 1.625-3.4375 1.046875-1.082031 2.480469-1.851562 4.03125-2.53125 1.550781-.679687 3.1875-1.238281 4.625-1.96875.886719-.449219 1.730469-.984375 2.375-1.6875z"/></svg>