<svg version="1.0" xmlns="http://www.w3.org/2000/svg"
 width="200" height="200" viewBox="0 0 200 200"
 preserveAspectRatio="xMidYMid meet">
<metadata>
Created by potrace 1.15, written by Peter Selinger 2001-2017
</metadata>
<g transform="translate(0.000000,200.000000) scale(0.100000,-0.100000)"
fill="#000000" stroke="none">
<path d="M973 605 c-15 -17 -17 -125 -3 -125 6 0 10 -13 10 -30 0 -16 -4 -30
-10 -30 -5 0 -10 -18 -10 -40 0 -22 -4 -40 -10 -40 -5 0 -10 -9 -10 -20 0 -18
7 -20 60 -20 53 0 60 2 60 20 0 11 5 20 10 20 6 0 10 9 10 20 0 11 5 20 10 20
6 0 10 14 10 30 0 17 5 30 10 30 6 0 10 14 10 30 0 20 -5 30 -15 30 -20 0
-105 85 -105 105 0 19 -11 19 -27 0z"/>
<path d="M1673 564 c-48 -49 -53 -58 -53 -99 0 -25 5 -45 10 -45 6 0 10 -13
10 -30 0 -16 5 -30 10 -30 6 0 10 -7 10 -16 0 -31 27 -44 94 -44 37 0 66 -4
66 -10 0 -5 7 -10 15 -10 18 0 65 -44 65 -60 0 -22 29 -40 64 -40 l36 0 0 106
c0 113 -8 134 -50 134 -25 0 -50 22 -50 44 0 9 -4 16 -10 16 -5 0 -10 9 -10
19 0 11 -6 22 -12 24 -10 4 -9 8 2 16 8 5 11 13 7 18 -5 4 -12 1 -18 -7 -8
-13 -10 -13 -19 0 -9 13 -11 13 -19 1 -7 -12 -17 -6 -49 27 -22 23 -42 42 -44
41 -2 0 -27 -25 -55 -55z"/>
<path d="M600 250 c0 -5 -9 -10 -20 -10 -11 0 -20 -4 -20 -10 0 -5 5 -10 10
-10 6 0 10 -9 10 -20 0 -11 -4 -20 -10 -20 -5 0 -10 -13 -10 -29 0 -16 -5 -31
-12 -33 -8 -3 -2 -14 15 -32 l28 -27 28 30 c16 17 34 31 41 31 19 0 47 33 32
38 -6 2 -12 12 -12 23 0 10 -4 19 -10 19 -5 0 -10 9 -10 20 0 13 -7 20 -20 20
-11 0 -20 5 -20 10 0 6 -4 10 -10 10 -5 0 -10 -4 -10 -10z"/>
<path d="M240 194 c0 -33 -21 -54 -54 -54 -14 0 -26 -4 -26 -10 0 -5 9 -10 20
-10 22 0 27 -15 8 -23 -10 -4 -9 -8 2 -17 11 -9 12 -13 3 -17 -15 -6 -18 -63
-3 -63 6 0 10 7 10 16 0 20 29 49 38 39 4 -4 1 -10 -5 -12 -7 -3 -13 -13 -13
-24 0 -17 8 -19 100 -19 55 0 100 3 100 6 0 3 -18 23 -40 44 -22 21 -40 44
-40 50 0 6 -18 29 -40 50 -22 21 -40 46 -40 54 0 9 -4 16 -10 16 -5 0 -10 -12
-10 -26z"/>
</g>
</svg>
