<svg version="1.0" xmlns="http://www.w3.org/2000/svg"
 width="100" height="100" viewBox="0 0 100 100"
 preserveAspectRatio="xMidYMid meet">
<g transform="translate(0.000000,100.000000) scale(0.100000,-0.100000)"
fill="#000000" stroke="none">
<path d="M402 984 c-127 -34 -211 -113 -257 -244 -9 -25 -30 -56 -50 -73 -42
-34 -59 -86 -45 -138 12 -44 36 -67 88 -82 31 -10 48 -24 76 -66 20 -29 36
-54 36 -56 0 -2 -22 -17 -50 -35 -92 -59 -143 -135 -155 -233 l-7 -57 462 0
462 0 -7 57 c-12 98 -63 174 -155 233 -28 18 -50 33 -50 35 0 2 16 27 36 56
28 42 45 56 76 66 51 15 76 37 88 82 14 51 -3 104 -44 138 -22 18 -42 49 -56
86 -12 32 -37 78 -56 103 l-35 45 30 28 31 29 -30 12 c-19 8 -46 10 -73 6 -59
-10 -55 -10 -122 8 -71 19 -122 19 -193 0z m317 -305 c25 -16 53 -29 62 -29
13 0 19 -11 25 -45 3 -25 3 -56 0 -71 -4 -16 -3 -23 3 -19 13 8 31 72 31 113
0 39 20 42 55 7 56 -55 18 -155 -59 -155 -33 0 -38 -4 -61 -51 -14 -27 -45
-69 -69 -92 -28 -27 -45 -54 -50 -77 l-6 -35 21 35 c12 19 23 36 24 38 5 6 80
-29 118 -55 44 -31 91 -94 101 -138 4 -16 9 -38 12 -47 5 -17 -8 -18 -180 -18
l-185 0 -6 38 c-3 20 -7 48 -9 61 -2 14 1 32 6 41 8 13 5 24 -12 48 -30 40
-50 40 -80 0 -17 -24 -20 -35 -12 -48 5 -9 8 -27 6 -41 -2 -13 -6 -41 -9 -61
l-6 -38 -185 0 c-172 0 -185 1 -180 18 3 9 8 31 12 47 16 70 89 143 178 180
32 14 41 14 47 3 4 -7 14 -22 22 -33 14 -19 15 -18 10 10 -3 17 -24 48 -49 72
-24 23 -55 65 -69 92 -23 47 -28 51 -61 51 -77 0 -115 100 -59 155 35 35 55
32 55 -7 0 -41 17 -105 30 -113 6 -4 7 6 4 24 -4 17 -3 46 0 64 l6 34 100 7
c115 7 235 42 295 85 l39 28 20 -25 c11 -13 40 -38 65 -53z"/>
</g>
</svg>
