<svg version="1.0" xmlns="http://www.w3.org/2000/svg"
 width="150" height="150" viewBox="0 0 150 150"
 preserveAspectRatio="xMidYMid meet">
<metadata>
Created by potrace 1.15, written by Peter Selinger 2001-2017
</metadata>
<g transform="translate(0.000000,150.000000) scale(0.100000,-0.100000)"
fill="#000000" stroke="none">
<path d="M733 453 c-15 -6 -18 -93 -3 -93 12 0 13 -47 2 -52 -5 -1 -12 -22
-16 -45 l-6 -43 44 0 c39 0 45 3 51 27 3 15 10 30 15 33 13 8 23 90 11 90 -11
0 -76 62 -82 78 -2 5 -10 7 -16 5z"/>
<path d="M1256 419 c-37 -38 -38 -42 -33 -91 4 -28 10 -54 15 -57 5 -3 12 -16
16 -27 6 -19 16 -22 69 -26 66 -4 98 -23 112 -67 4 -15 15 -21 36 -21 l30 0
-3 87 c-3 87 -3 88 -30 91 -17 2 -29 11 -34 25 -4 12 -11 25 -17 28 -5 4 -9
19 -9 34 0 20 -3 24 -10 14 -8 -12 -10 -12 -15 0 -4 11 -7 11 -13 0 -6 -9 -16
-5 -36 19 -16 18 -31 32 -34 32 -3 -1 -22 -19 -44 -41z"/>
</g>
</svg>
