<svg version="1.0" xmlns="http://www.w3.org/2000/svg"
 width="100" height="100" viewBox="0 0 100 100"
 preserveAspectRatio="xMidYMid meet">
<metadata>
Created by potrace 1.15, written by Peter Selinger 2001-2017
</metadata>
<g transform="translate(0.000000,100.000000) scale(0.100000,-0.100000)"
fill="#000000" stroke="none">
<path d="M837 282 c-31 -32 -33 -49 -13 -97 13 -31 19 -35 51 -35 28 0 44 -7
65 -30 44 -47 60 -40 60 26 0 47 -3 55 -16 50 -8 -3 -12 -2 -9 4 3 6 2 10 -4
10 -12 0 -43 55 -35 63 3 3 -2 4 -13 2 -10 -1 -27 6 -39 16 -20 19 -21 19 -47
-9z"/>
</g>
</svg>
