<svg version="1.0" xmlns="http://www.w3.org/2000/svg"
 width="150" height="150" viewBox="0 0 150 150"
 preserveAspectRatio="xMidYMid meet">
<g transform="translate(0.000000,150.000000) scale(0.100000,-0.100000)"
fill="#000000" stroke="none">
<path d="M543 1470 c-126 -73 -215 -266 -232 -503 -5 -65 -14 -114 -25 -135
-23 -45 -102 -82 -173 -82 -65 0 -74 -12 -24 -35 28 -12 37 -22 34 -35 -3 -10
4 -35 16 -57 22 -43 69 -73 116 -73 23 0 26 -2 15 -15 -7 -8 -28 -15 -46 -15
-19 0 -34 -4 -34 -9 0 -12 55 -58 93 -78 l31 -15 -78 -25 c-57 -18 -90 -35
-122 -65 -52 -48 -102 -147 -110 -215 -5 -44 -3 -50 26 -78 l31 -30 689 0 689
0 30 29 c17 17 31 38 31 47 0 28 -67 167 -106 220 -20 27 -50 57 -67 65 -29
16 -191 66 -213 67 -6 0 4 22 23 49 47 70 64 137 70 263 6 122 -14 280 -49
394 -47 153 -130 266 -242 328 -48 26 -59 28 -186 31 -135 3 -135 3 -187 -28z
m295 -207 c49 -30 113 -97 137 -144 47 -92 53 -206 20 -368 -11 -51 -19 -69
-44 -88 -17 -14 -29 -28 -27 -32 3 -4 0 -8 -7 -9 -7 -1 -37 -6 -67 -10 -44 -6
-51 -9 -32 -15 12 -5 22 -13 22 -18 0 -13 -99 -59 -125 -59 -41 1 -109 42
-175 106 -64 62 -69 69 -79 128 -6 34 -14 110 -17 168 -7 103 -6 106 16 118
22 12 47 10 82 -5 13 -5 21 0 29 19 18 38 28 32 31 -20 l3 -45 98 145 c54 80
100 146 103 146 2 0 17 -8 32 -17z m-242 -704 c11 -18 86 -49 120 -49 18 0 58
13 89 30 47 25 64 29 97 24 l40 -7 -5 -56 c-3 -31 -35 -150 -70 -266 l-65
-210 -75 -9 c-41 -5 -81 -6 -89 -3 -10 3 -26 70 -52 210 -36 197 -37 208 -25
276 13 69 21 83 35 60z"/>
</g>
</svg>
