<svg enable-background="new 0 0 30 30" height="100" viewBox="0 0 30 30" width="100" xmlns="http://www.w3.org/2000/svg"><path d="m3.515 28.5c.26-4.455 3.966-8 8.485-8h6c4.519 0 8.226 3.545 8.485 8z" fill="#8bb7f0"/><path d="m18 21c4.073 0 7.444 3.059 7.938 7h-21.876c.494-3.941 3.865-7 7.938-7zm0-1h-6c-4.971 0-9 4.029-9 9h24c0-4.971-4.029-9-9-9z" fill="#4e7ab5"/><path d="m15 22.5c-2.13 0-3.219-1.269-3.5-1.653v-5.347h7v5.347c-.279.382-1.368 1.653-3.5 1.653z" fill="#deb974"/><path d="m18 16v4.674c-.345.415-1.296 1.326-3 1.326-1.708 0-2.66-.916-3-1.325v-4.675zm1-1h-8v6s1.208 2 4 2 4-2 4-2z" fill="#967a44"/><path d="m20 14.5c-.827 0-1.5-.673-1.5-1.5s.673-1.5 1.5-1.5c1.385 0 1.5.394 1.5.833 0 .906-.756 2.167-1.5 2.167z" fill="#deb974"/><path d="m20 12c.825 0 .974.155.975.156.006.01.025.065.025.177 0 .72-.629 1.667-1 1.667-.551 0-1-.449-1-1s.449-1 1-1m0-1c-1.105 0-2 .895-2 2s.895 2 2 2 2-1.562 2-2.667-.895-1.333-2-1.333z" fill="#967a44"/><path d="m10 14.5c-.744 0-1.5-1.261-1.5-2.167 0-.439.115-.833 1.5-.833.827 0 1.5.673 1.5 1.5s-.673 1.5-1.5 1.5z" fill="#deb974"/><path d="m10 12c.551 0 1 .449 1 1s-.449 1-1 1c-.371 0-1-.947-1-1.667 0-.112.019-.167.024-.176.002-.002.151-.157.976-.157m0-1c-1.105 0-2 .229-2 1.333s.895 2.667 2 2.667 2-.895 2-2-.895-2-2-2z" fill="#967a44"/><path d="m15 19.5c-.429 0-.841-.191-1.13-.525l-.102-.118-.151-.039c-2.424-.63-4.117-2.816-4.117-5.318v-6.974c0-1.301 1.059-2.359 2.359-2.359h6.281c1.301 0 2.359 1.059 2.359 2.359v6.974c0 2.502-1.693 4.688-4.118 5.317l-.151.039-.102.118c-.287.335-.699.526-1.128.526z" fill="#f5ce85"/><path d="m18.141 4.667c1.025 0 1.859.834 1.859 1.86v6.973c0 2.274-1.539 4.262-3.743 4.833l-.302.078-.204.236c-.114.132-.363.353-.751.353s-.637-.221-.751-.353l-.204-.236-.302-.078c-2.204-.571-3.743-2.559-3.743-4.833v-6.974c0-1.025.834-1.86 1.859-1.86h6.282m0-.999h-6.281c-1.58 0-2.86 1.28-2.86 2.859v6.974c0 2.792 1.91 5.132 4.492 5.801.367.425.903.699 1.508.699s1.141-.274 1.508-.699c2.582-.669 4.492-3.009 4.492-5.801v-6.974c0-1.579-1.28-2.859-2.859-2.859z" fill="#967a44"/><path d="m20.5 12.5v-1.777c0-2.818-2.227-3.698-2.322-3.734l-.295-.113-.229.219c-.013.011-1.54 1.405-4.754 1.405-2.065 0-3.4 1.321-3.4 3.367v.633h-.123c-.251-.904-.877-3.369-.877-5.375 0-2.727 2.278-5.625 6.5-5.625 1.984 0 2.829 1.395 2.864 1.454l.145.246.287.003c1.108 0 3.204.857 3.204 4.104 0 1.827-.627 4.285-.877 5.193z" fill="#a6714e"/><path d="m15 2c1.68 0 2.405 1.162 2.429 1.2l.288.503h.579c.936 0 2.704.754 2.704 3.603 0 .624-.077 1.328-.187 2.016-.588-2.065-2.367-2.768-2.457-2.802l-.584-.21-.455.415c-.057.052-1.431 1.275-4.417 1.275-1.692 0-2.981.817-3.562 2.148-.184-.957-.338-2.049-.338-3.023 0-2.484 2.103-5.125 6-5.125m0-1c-4.295 0-7 2.94-7 6.125 0 2.601 1 5.875 1 5.875h1s0-.417 0-1.133c0-1.966 1.334-2.867 2.9-2.867 3.485 0 5.1-1.545 5.1-1.545s2 .761 2 3.267v2.278h1s1-3.323 1-5.694c0-3.329-2.139-4.603-3.703-4.603 0 0-.977-1.703-3.297-1.703z" fill="#7a4f34"/></svg>