<svg version="1.0" xmlns="http://www.w3.org/2000/svg"
 width="150" height="150" viewBox="0 0 150 150"
 preserveAspectRatio="xMidYMid meet">
<g transform="translate(0.000000,150.000000) scale(0.100000,-0.100000)"
fill="#000000" stroke="none">
<path d="M613 1489 c-24 -6 -43 -15 -43 -21 0 -6 -3 -9 -6 -5 -3 3 -17 -4 -31
-16 -91 -77 -117 -141 -116 -282 1 -141 36 -474 51 -484 5 -3 25 -16 45 -29
40 -25 42 -43 11 -104 -16 -31 -4 -27 -203 -73 -108 -24 -164 -42 -186 -59
-40 -31 -88 -121 -114 -216 -30 -108 -28 -132 14 -169 l36 -31 676 0 677 0 38
26 c50 35 49 55 -3 188 -44 113 -89 189 -129 218 -15 11 -89 31 -186 50 l-162
32 -11 65 -11 66 29 25 c24 21 31 37 40 99 7 41 14 121 16 177 3 57 10 115 15
129 24 64 2 236 -38 292 -25 36 -91 96 -123 113 -30 17 -228 23 -286 9z m105
-205 c66 -81 149 -109 238 -79 19 6 24 -1 48 -65 26 -71 26 -72 16 -212 -15
-194 -22 -226 -56 -255 -139 -116 -185 -138 -249 -118 -39 11 -203 113 -223
138 -15 19 -42 193 -42 272 0 148 54 267 154 342 33 24 62 40 66 36 3 -4 25
-31 48 -59z m238 -730 c14 -83 -1 -116 -74 -156 -108 -62 -235 -45 -315 40
l-45 49 21 64 c12 35 23 65 23 67 1 2 26 -12 55 -31 112 -71 162 -71 260 3 29
22 55 37 58 34 3 -3 11 -35 17 -70z"/>
</g>
</svg>
