<svg version="1.0" xmlns="http://www.w3.org/2000/svg"
 width="100" height="100" viewBox="0 0 100 100"
 preserveAspectRatio="xMidYMid meet">
<g transform="translate(0.000000,100.000000) scale(0.100000,-0.100000)"
fill="#000000" stroke="none">
<path d="M373 974 c-26 -15 -54 -44 -70 -72 -25 -41 -28 -56 -27 -127 2 -130
3 -139 19 -231 12 -69 20 -93 38 -106 12 -10 25 -18 29 -18 3 0 1 -16 -5 -35
-8 -29 -17 -37 -46 -45 -46 -11 -117 -28 -159 -35 -39 -8 -86 -45 -105 -84 -7
-15 -22 -59 -32 -99 l-19 -72 24 -25 23 -25 457 0 457 0 23 25 24 25 -18 53
c-48 139 -86 193 -145 203 -20 3 -49 9 -66 14 -16 5 -51 11 -76 15 -47 6 -47
6 -51 48 -4 30 0 48 12 62 12 14 21 54 30 135 6 63 16 125 21 138 33 83 -26
223 -113 268 -17 9 -57 14 -105 14 -66 0 -85 -4 -120 -26z m187 -174 c25 -7
47 -7 64 0 22 8 28 7 33 -8 3 -9 11 -31 18 -47 9 -22 10 -60 4 -140 -5 -60
-11 -116 -14 -126 -7 -22 -84 -85 -127 -104 -18 -8 -26 -14 -17 -15 9 0 36 13
60 30 39 26 45 27 51 12 14 -35 8 -99 -10 -115 -27 -25 -87 -47 -127 -47 -67
0 -154 63 -141 101 3 8 10 27 16 42 l10 28 43 -26 c24 -14 50 -25 58 -24 8 0
3 5 -11 10 -14 5 -53 29 -87 52 -57 38 -63 45 -70 87 -4 25 -8 86 -8 135 0 77
4 98 26 140 14 28 44 64 68 83 l43 32 40 -45 c26 -29 52 -48 78 -55z"/>
</g>
</svg>
