<svg version="1.0" xmlns="http://www.w3.org/2000/svg"
 width="400" height="400" viewBox="0 0 400 400"
 preserveAspectRatio="xMidYMid meet">
<g transform="translate(0.000000,400.000000) scale(0.100000,-0.100000)"
fill="#000000" stroke="none">
<path d="M1780 3988 c0 -6 -13 -8 -36 -3 -22 4 -34 3 -30 -3 8 -13 -37 -24
-60 -15 -13 5 -15 3 -9 -7 6 -10 3 -12 -13 -8 -14 4 -20 2 -15 -5 4 -6 0 -8
-10 -4 -10 3 -17 2 -17 -4 0 -6 -9 -8 -20 -4 -14 4 -22 1 -26 -10 -4 -9 -13
-14 -20 -11 -7 3 -19 -1 -26 -8 -7 -7 -19 -11 -26 -8 -6 2 -15 -3 -18 -12 -3
-9 -11 -13 -17 -9 -5 3 -16 -2 -24 -12 -7 -11 -13 -15 -13 -10 0 5 -7 0 -16
-11 -8 -10 -13 -12 -9 -4 4 8 -3 4 -15 -10 -12 -14 -19 -18 -15 -10 4 8 -3 4
-15 -10 -12 -14 -19 -18 -15 -10 4 8 -1 6 -9 -4 -9 -11 -16 -16 -16 -10 0 5
-10 -2 -23 -16 -12 -14 -20 -21 -17 -15 3 6 -6 -1 -19 -15 -13 -14 -20 -18
-16 -10 4 8 -13 -6 -38 -32 -24 -26 -48 -44 -52 -40 -5 4 -5 2 -2 -4 3 -6 -9
-23 -28 -39 -19 -15 -32 -31 -29 -36 3 -5 0 -8 -8 -7 -7 2 -12 -3 -10 -9 1 -7
-5 -13 -13 -13 -8 0 -16 -4 -16 -10 -1 -5 -2 -14 -3 -19 0 -5 -5 -13 -10 -18
-5 -5 -6 -3 -2 5 14 23 -2 12 -19 -14 -12 -18 -13 -24 -4 -19 8 4 3 -3 -11
-15 -14 -12 -18 -19 -10 -15 8 4 5 -2 -7 -12 -12 -10 -23 -25 -25 -33 -2 -8
-10 -21 -18 -28 -13 -12 -13 -13 0 -7 8 4 6 -1 -4 -9 -11 -9 -16 -16 -11 -16
5 0 1 -6 -10 -13 -10 -8 -15 -19 -12 -24 4 -6 0 -14 -9 -17 -9 -4 -14 -13 -10
-21 3 -8 1 -15 -4 -15 -5 0 -6 -7 -3 -17 4 -10 2 -14 -4 -10 -14 9 -24 -18
-16 -40 4 -10 2 -14 -4 -10 -6 4 -14 0 -17 -9 -9 -24 -7 -31 4 -14 6 9 10 10
10 3 0 -6 -6 -18 -13 -25 -8 -7 -12 -19 -9 -26 2 -6 -4 -19 -12 -28 -11 -10
-14 -24 -10 -41 5 -19 4 -24 -6 -18 -9 6 -11 -1 -5 -26 5 -25 4 -30 -4 -19 -8
11 -9 6 -4 -19 4 -25 3 -32 -6 -27 -9 6 -10 -5 -5 -45 6 -41 4 -50 -6 -44 -11
7 -12 -5 -7 -56 3 -39 2 -56 -3 -44 -6 14 -9 2 -9 -40 0 -42 3 -54 9 -40 5 12
6 -5 3 -44 -5 -52 -4 -63 7 -56 10 6 12 -1 7 -38 -4 -31 -3 -47 4 -47 7 0 8
-12 4 -32 -5 -26 -4 -30 5 -18 9 12 10 7 5 -19 -6 -25 -4 -32 5 -26 10 6 11 1
6 -19 -4 -15 -2 -26 3 -26 6 0 7 -7 4 -17 -5 -12 -3 -14 7 -8 10 6 12 3 8 -11
-3 -11 1 -25 9 -32 15 -15 18 -36 3 -27 -6 3 -7 -1 -4 -9 3 -9 11 -13 17 -9 6
4 8 0 4 -10 -8 -22 2 -49 16 -40 6 4 8 0 4 -10 -3 -10 -2 -17 3 -17 5 0 7 -7
4 -15 -4 -8 1 -17 10 -21 9 -3 13 -11 9 -17 -3 -5 2 -16 12 -24 11 -7 15 -13
10 -13 -5 0 0 -7 11 -16 10 -8 13 -13 7 -9 -9 4 -11 1 -7 -9 3 -9 10 -13 15
-10 5 3 6 -2 3 -10 -4 -11 0 -16 12 -16 9 0 14 -3 11 -7 -4 -3 1 -12 11 -20
11 -10 12 -12 2 -8 -10 4 -9 2 2 -8 10 -8 15 -17 11 -20 -3 -4 2 -9 11 -13 9
-3 13 -10 11 -15 -3 -4 3 -14 15 -21 11 -7 20 -16 20 -21 0 -4 41 -49 92 -100
51 -51 88 -85 83 -77 -8 13 -6 13 8 1 9 -7 14 -18 10 -25 -3 -6 -3 -8 2 -4 4
4 14 0 22 -10 10 -11 12 -12 8 -2 -4 10 -2 9 8 -2 8 -10 17 -16 20 -13 4 3 5
2 2 -1 -2 -4 0 -15 5 -24 8 -15 5 -19 -16 -24 -14 -4 -29 -4 -35 -1 -5 4 -16
-1 -25 -9 -8 -9 -21 -16 -27 -16 -7 0 -6 4 3 10 9 6 10 10 3 10 -6 0 -18 -7
-27 -15 -8 -8 -21 -12 -29 -9 -8 3 -22 -2 -31 -11 -9 -9 -20 -14 -25 -11 -14
9 -42 -5 -34 -17 4 -6 0 -8 -10 -4 -22 8 -49 -2 -41 -15 4 -6 -2 -7 -16 -3
-14 4 -20 3 -16 -3 7 -11 -21 -25 -35 -16 -5 3 -9 0 -9 -6 0 -7 -7 -9 -15 -6
-9 3 -18 -1 -22 -10 -3 -8 -12 -13 -20 -10 -7 3 -16 -1 -20 -10 -3 -8 -12 -13
-20 -10 -7 3 -16 -1 -20 -10 -3 -8 -12 -13 -19 -10 -7 3 -18 -3 -23 -12 -5 -9
-12 -16 -15 -14 -14 5 -27 1 -22 -7 3 -5 -1 -12 -10 -15 -10 -4 -13 -2 -9 7 4
6 -1 3 -9 -7 -9 -11 -16 -16 -16 -11 0 5 -7 0 -16 -11 -8 -10 -13 -12 -9 -4 4
8 -3 4 -15 -10 -12 -14 -19 -18 -15 -10 4 8 -3 3 -16 -11 -13 -14 -33 -32 -44
-40 -19 -13 -19 -13 -6 6 7 11 2 7 -13 -8 -14 -15 -26 -24 -26 -20 0 4 -13 -6
-28 -22 -15 -17 -23 -24 -18 -15 5 8 -7 -2 -26 -22 -20 -21 -38 -34 -42 -31
-3 3 -6 0 -6 -8 0 -8 -24 -37 -52 -64 l-53 -50 50 55 c28 30 35 41 17 25 -41
-36 -123 -133 -103 -120 8 4 -5 -11 -28 -34 -23 -23 -39 -46 -36 -50 2 -5 -2
-12 -11 -15 -9 -4 -14 -9 -11 -13 4 -3 -1 -12 -11 -20 -11 -10 -12 -12 -2 -8
8 4 6 -1 -4 -9 -11 -9 -16 -16 -10 -16 5 0 1 -5 -9 -11 -9 -6 -15 -14 -12 -20
4 -5 2 -9 -3 -9 -6 0 -13 -7 -16 -16 -4 -10 -2 -13 7 -9 6 4 5 1 -4 -7 -9 -7
-14 -19 -11 -27 3 -8 0 -11 -7 -7 -11 7 -15 -5 -12 -32 1 -6 -3 -12 -8 -12 -6
0 -7 -7 -4 -17 4 -11 3 -14 -5 -9 -8 5 -10 2 -6 -8 3 -9 2 -16 -4 -16 -6 0 -8
-10 -4 -22 3 -13 1 -19 -5 -15 -14 9 -23 -15 -16 -42 3 -12 1 -21 -6 -21 -7 0
-9 -10 -5 -27 3 -18 2 -23 -3 -15 -11 15 -18 -368 -8 -422 l7 -36 1989 0 1988
0 6 43 c4 24 4 122 1 218 -8 238 -8 239 -19 239 -5 0 -7 9 -4 21 7 27 -2 51
-16 42 -6 -4 -8 2 -5 15 4 12 2 22 -3 22 -4 0 -5 7 -2 17 5 12 3 14 -7 8 -10
-6 -12 -4 -7 8 3 10 2 17 -4 17 -5 0 -9 6 -8 13 3 26 -1 38 -12 31 -7 -4 -10
-1 -7 7 3 8 -2 20 -11 27 -9 8 -10 11 -4 7 9 -4 11 -1 7 9 -3 9 -11 13 -17 9
-6 -4 -8 0 -4 10 4 10 0 20 -11 26 -9 6 -13 11 -8 11 6 0 1 7 -10 16 -10 8
-12 13 -4 9 10 -4 9 -2 -2 8 -10 8 -15 17 -11 20 3 4 -2 9 -11 13 -9 3 -14 10
-11 14 3 5 -5 16 -17 24 -12 9 -18 16 -13 16 6 1 -3 12 -20 26 -16 15 -23 23
-15 19 8 -4 -15 21 -51 56 -36 35 -49 51 -30 34 l36 -30 -39 42 c-22 23 -43
40 -48 37 -4 -3 -8 3 -8 12 0 10 -3 15 -6 12 -3 -4 -22 10 -41 30 -20 21 -30
28 -22 16 8 -11 -1 -4 -18 15 -18 20 -33 32 -33 27 0 -4 -9 2 -21 15 -11 13
-17 18 -14 11 6 -11 3 -11 -13 -1 -12 7 -20 15 -19 18 1 4 -1 6 -5 6 -4 0 -14
9 -23 20 -9 11 -14 13 -10 5 4 -8 -3 -4 -15 10 -12 14 -19 18 -15 10 4 -8 -1
-6 -9 4 -9 11 -16 16 -16 11 0 -5 -7 0 -16 11 -8 10 -13 13 -9 7 4 -9 1 -11
-9 -7 -9 3 -13 10 -10 15 3 5 0 9 -5 9 -20 0 -26 3 -37 18 -6 8 -16 12 -21 9
-6 -4 -13 0 -17 8 -3 8 -12 12 -19 9 -8 -3 -17 2 -21 11 -3 9 -11 13 -17 10
-5 -4 -17 1 -25 11 -9 11 -13 13 -9 7 3 -7 1 -13 -5 -13 -6 0 -13 7 -16 15 -4
8 -10 13 -14 10 -13 -8 -41 6 -34 17 4 6 -2 7 -16 3 -14 -4 -20 -3 -16 3 8 13
-19 23 -41 15 -10 -4 -14 -2 -10 4 8 12 -20 26 -34 17 -5 -3 -16 2 -25 11 -9
9 -23 14 -31 11 -8 -3 -21 1 -29 9 -9 8 -21 15 -27 15 -7 0 -6 -4 3 -10 9 -6
10 -10 3 -10 -6 0 -19 7 -27 16 -9 8 -20 13 -25 9 -6 -3 -21 -3 -35 1 -20 5
-24 10 -17 23 14 24 44 58 36 41 -4 -10 -2 -9 8 2 8 10 18 14 22 10 5 -4 5 -2
2 4 -4 7 1 18 10 25 14 12 16 12 9 -1 -4 -8 4 -3 17 12 14 15 28 24 31 21 3
-4 6 0 6 8 0 8 27 39 60 69 33 30 60 59 60 65 0 6 9 16 20 23 12 7 18 17 15
21 -2 5 2 12 11 15 9 4 14 9 11 13 -4 3 1 12 11 20 11 9 12 12 2 8 -8 -4 -2 4
14 17 19 16 26 29 21 38 -5 8 -4 11 2 7 6 -4 14 0 17 9 4 10 2 13 -7 9 -6 -4
-3 1 7 9 11 9 16 16 11 16 -5 0 -1 6 10 13 10 8 15 19 12 24 -4 6 0 14 9 17 9
4 14 13 10 21 -3 8 -1 15 4 15 5 0 6 7 3 17 -4 10 -2 14 4 10 14 -9 24 18 16
40 -4 10 -2 14 4 10 6 -4 14 0 17 9 3 8 2 12 -4 9 -15 -9 -12 12 3 27 8 7 12
21 9 32 -4 14 -2 17 8 11 10 -6 12 -4 7 8 -3 10 -2 17 4 17 5 0 7 11 3 26 -5
20 -4 25 6 19 9 -6 11 1 5 26 -5 26 -4 31 5 19 9 -12 10 -8 5 18 -4 20 -3 32
4 32 7 0 8 16 4 47 -5 37 -3 44 7 38 10 -6 12 6 7 61 -3 42 -2 59 3 44 6 -19
8 -10 8 35 0 45 -2 54 -8 35 -5 -16 -7 1 -3 45 3 54 2 67 -7 55 -9 -12 -10 -4
-6 38 3 32 1 52 -5 52 -7 0 -8 13 -4 33 5 25 4 29 -5 17 -9 -12 -10 -9 -6 13
4 17 2 27 -5 27 -7 0 -9 9 -5 24 4 16 0 30 -10 40 -8 9 -12 20 -9 26 3 6 -1
17 -9 26 -9 8 -16 21 -16 27 0 7 4 6 10 -3 7 -10 10 -11 10 -2 0 7 -7 15 -15
18 -10 4 -13 13 -10 25 4 12 1 21 -10 25 -9 4 -14 12 -11 19 3 8 -2 16 -10 19
-8 3 -14 11 -14 18 0 9 3 8 10 -2 7 -10 10 -11 10 -2 0 7 -7 15 -15 18 -8 4
-12 11 -8 17 3 5 -2 16 -12 24 -11 7 -15 13 -10 13 5 0 0 7 -11 16 -10 8 -12
13 -4 9 13 -6 13 -5 0 7 -8 7 -16 20 -18 28 -2 8 -13 23 -25 33 -12 10 -15 16
-7 12 10 -4 9 -2 -2 8 -10 8 -16 16 -14 18 3 2 -4 15 -16 29 -11 14 -16 18
-12 10 4 -9 3 -12 -2 -7 -5 5 -10 13 -10 18 -1 5 -2 14 -3 19 0 6 -8 10 -16
10 -8 0 -14 6 -12 13 1 6 -4 11 -11 9 -8 -1 -11 2 -8 7 3 5 -10 21 -29 36 -19
16 -31 33 -28 39 3 6 3 8 -2 4 -4 -4 -28 14 -52 40 -25 26 -42 40 -38 32 4 -8
-3 -4 -16 10 -13 14 -22 21 -19 15 3 -6 -5 1 -17 15 -13 14 -23 21 -23 16 0
-6 -7 -1 -16 10 -8 10 -13 12 -9 4 4 -8 -3 -4 -15 10 -12 14 -19 18 -15 10 4
-8 -3 -4 -15 10 -12 14 -19 18 -15 10 4 -8 -1 -6 -9 4 -9 11 -16 16 -16 11 0
-5 -6 -1 -13 10 -8 10 -19 15 -24 12 -6 -4 -14 0 -17 9 -3 9 -12 14 -18 12 -7
-3 -19 1 -26 8 -7 7 -19 11 -26 8 -7 -3 -16 2 -20 11 -4 11 -13 14 -25 10 -12
-3 -21 0 -25 10 -3 8 -11 15 -18 15 -9 0 -9 -3 2 -11 12 -9 12 -10 -3 -5 -10
3 -23 6 -28 6 -6 0 -7 5 -3 12 5 8 2 9 -10 5 -21 -8 -68 2 -61 13 6 9 0 10
-287 15 -146 2 -218 0 -218 -7z"/>
</g>
</svg>
