<?xml version="1.0" encoding="UTF-8"?>
<svg xmlns="http://www.w3.org/2000/svg" xmlns:xlink="http://www.w3.org/1999/xlink" viewBox="0 0 50 50" version="1.1" width="32px" height="32px">
<g id="surface1">
<path style=" " d="M 25.875 3.3125 C 21.183594 3.417969 18.214844 5.316406 16.9375 8.25 C 15.722656 11.042969 15.976563 14.5625 16.84375 18.21875 C 16.378906 18.765625 15.996094 19.535156 16.09375 20.6875 L 16.09375 20.75 C 16.261719 21.96875 16.628906 22.828125 17.09375 23.4375 C 17.320313 23.734375 17.65625 23.742188 17.9375 23.90625 C 18.09375 24.960938 18.351563 26.027344 18.75 26.90625 C 18.976563 27.40625 19.210938 27.839844 19.46875 28.21875 C 19.589844 28.394531 19.773438 28.507813 19.90625 28.65625 L 19.90625 32.25 C 19.585938 33.019531 18.824219 33.640625 17.625 34.25 C 16.375 34.882813 14.742188 35.464844 13.09375 36.1875 C 11.445313 36.910156 9.777344 37.804688 8.4375 39.1875 C 7.097656 40.570313 6.136719 42.449219 6 44.9375 L 5.9375 46 L 46.0625 46 L 46 44.9375 C 45.863281 42.449219 44.902344 40.570313 43.5625 39.1875 C 42.222656 37.804688 40.53125 36.910156 38.875 36.1875 C 37.21875 35.464844 35.578125 34.886719 34.3125 34.25 C 33.097656 33.640625 32.339844 33.027344 32 32.25 L 32 28.625 C 32.121094 28.484375 32.292969 28.386719 32.40625 28.21875 C 32.664063 27.839844 32.929688 27.40625 33.15625 26.90625 C 33.550781 26.035156 33.8125 24.980469 33.96875 23.9375 C 34.289063 23.773438 34.65625 23.761719 34.90625 23.4375 C 35.386719 22.808594 35.667969 21.914063 35.78125 20.6875 C 35.871094 19.628906 35.566406 18.859375 35.09375 18.28125 C 35.613281 16.679688 36.230469 14.117188 36.03125 11.5 C 35.921875 10.0625 35.542969 8.628906 34.6875 7.4375 C 33.914063 6.359375 32.664063 5.621094 31.09375 5.28125 C 30.035156 3.867188 28.113281 3.3125 25.90625 3.3125 Z M 25.90625 5.3125 C 25.917969 5.3125 25.925781 5.3125 25.9375 5.3125 C 27.933594 5.320313 29.210938 5.882813 29.625 6.59375 L 29.875 7.03125 L 30.375 7.09375 C 31.75 7.285156 32.503906 7.816406 33.0625 8.59375 C 33.621094 9.371094 33.941406 10.457031 34.03125 11.65625 C 34.214844 14.058594 33.519531 16.875 33.0625 18.15625 L 32.75 19 L 33.53125 19.40625 C 33.523438 19.433594 33.851563 19.765625 33.8125 20.5 C 33.8125 20.515625 33.8125 20.515625 33.8125 20.53125 C 33.71875 21.472656 33.476563 22.003906 33.3125 22.21875 C 33.144531 22.4375 33.058594 22.40625 33.09375 22.40625 L 32.1875 22.40625 L 32.09375 23.3125 C 32.007813 24.210938 31.683594 25.238281 31.3125 26.0625 C 31.125 26.476563 30.953125 26.84375 30.78125 27.09375 C 30.609375 27.34375 30.40625 27.488281 30.5 27.4375 L 30 27.71875 L 30 32.34375 C 30 32.375 30 32.40625 30 32.4375 L 30 32.5 C 30 32.488281 29.820313 32.929688 29.09375 33.3125 C 28.367188 33.695313 27.246094 34 26 34 C 24.742188 34 23.628906 33.714844 22.90625 33.34375 C 22.183594 32.972656 22 32.585938 22 32.5 C 22.003906 32.347656 21.96875 32.199219 21.90625 32.0625 L 21.90625 27.71875 L 21.40625 27.4375 C 21.5 27.488281 21.296875 27.34375 21.125 27.09375 C 20.953125 26.84375 20.75 26.476563 20.5625 26.0625 C 20.191406 25.238281 19.867188 24.210938 19.78125 23.3125 L 19.71875 22.40625 L 18.875 22.40625 C 18.839844 22.390625 18.746094 22.339844 18.65625 22.21875 C 18.480469 21.988281 18.230469 21.449219 18.09375 20.53125 C 18.09375 20.511719 18.09375 20.519531 18.09375 20.5 C 18.089844 20.484375 18.097656 20.484375 18.09375 20.46875 C 18.078125 19.710938 18.546875 19.289063 18.46875 19.34375 L 19.03125 18.9375 L 18.875 18.25 C 17.953125 14.605469 17.808594 11.304688 18.78125 9.0625 C 19.753906 6.828125 21.722656 5.414063 25.90625 5.3125 Z M 20.90625 34.375 C 21.226563 34.671875 21.59375 34.917969 22 35.125 C 23.078125 35.679688 24.457031 36 26 36 C 27.554688 36 28.960938 35.660156 30.03125 35.09375 C 30.40625 34.894531 30.761719 34.671875 31.0625 34.40625 C 31.71875 35.09375 32.558594 35.621094 33.4375 36.0625 C 34.886719 36.789063 36.539063 37.351563 38.09375 38.03125 C 39.648438 38.710938 41.074219 39.480469 42.125 40.5625 C 42.960938 41.425781 43.476563 42.574219 43.75 44 L 8.25 44 C 8.523438 42.574219 9.039063 41.425781 9.875 40.5625 C 10.921875 39.480469 12.355469 38.710938 13.90625 38.03125 C 15.457031 37.351563 17.09375 36.792969 18.53125 36.0625 C 19.417969 35.613281 20.261719 35.078125 20.90625 34.375 Z "/>
</g>
</svg>
