<svg version="1.0" xmlns="http://www.w3.org/2000/svg"
 width="150" height="150" viewBox="0 0 150 150"
 preserveAspectRatio="xMidYMid meet">
<g transform="translate(0.000000,150.000000) scale(0.100000,-0.100000)"
fill="#000000" stroke="none">
<path d="M591 1484 c-90 -32 -172 -100 -235 -192 -56 -82 -79 -162 -79 -282 0
-153 40 -254 143 -355 27 -27 50 -52 50 -56 0 -3 -19 -11 -42 -18 -24 -7 -83
-33 -131 -58 -109 -56 -216 -159 -264 -253 -31 -59 -33 -69 -33 -166 l0 -104
751 0 751 0 -4 113 c-3 108 -4 115 -38 172 -56 93 -156 186 -258 238 -48 25
-106 51 -129 58 -24 7 -43 15 -43 18 0 4 23 29 50 56 103 101 143 202 143 355
0 120 -23 200 -79 282 -52 77 -117 135 -195 175 -50 25 -64 28 -184 30 -99 2
-140 -1 -174 -13z"/>
</g>
</svg>
