<svg height="200" preserveAspectRatio="xMidYMid meet" viewBox="0 0 200 200" width="200" xmlns="http://www.w3.org/2000/svg"><path d="m677 1604c-126-27-220-82-254-148-11-22-18-68-21-153-3-73-9-123-15-123-24 0 32-231 68-283 9-13 15-44 15-75 0-43-4-55-18-59-11-2-23-23-32-56l-15-52-90-37c-112-47-297-139-307-153-4-5-8-27-8-47v-38h1000 1000v23c-1 40-45 111-93 147-26 19-97 55-158 79-61 25-127 58-146 73-20 15-42 28-49 28-26 0-51 88-39 140 5 23 18 33 77 59 81 35 78 24 39 168-11 40-25 127-31 194-6 66-16 133-21 147-27 71-88 119-181 142-39 10-52 8-113-15-118-44-143-83-156-249-10-123-22-192-50-280-23-73-24-86-1-87 9 0 42-12 72-27 55-27 55-27 58-78 4-71-10-101-58-121-22-10-40-21-40-26 0-11-120-67-143-67-42 0-74 28-87 77-8 26-19 52-27 56-20 12-16 90 7 139 63 137 89 255 60 273-6 4-10 56-10 122 0 123-12 179-42 188-9 4-28 18-40 34-13 15-31 30-41 34-21 8-22 21-2 37 39 33 2 37-108 14z" transform="matrix(.1 0 0 -.1 0 200)"/></svg>