<svg height="400" preserveAspectRatio="xMidYMid meet" viewBox="0 0 400 400" width="400" xmlns="http://www.w3.org/2000/svg"><path d="m1450 3224c-170-31-263-58-370-107-52-24-122-70-140-92-7-8-17-12-23-8-5 3-7 2-4-4 4-6-5-21-19-34-13-12-36-43-51-68-26-45-26-49-31-290-4-241-5-244-28-264-39-34-29-117 43-334 18-55 33-108 33-117 0-21 36-92 68-134 25-33 25-34 14-135-11-95-14-104-43-127-28-24-60-91-76-160-6-29-31-60-47-60-6 0-54-18-106-41s-104-45-115-50c-215-88-421-192-507-256l-48-35v-74-74h2000 2000v33c0 31-28 109-62 172-45 85-159 176-278 225-30 12-75 30-100 40-205 83-309 134-348 170-26 25-60 45-88 53-28 7-53 21-62 35-23 35-43 168-36 232 6 53 33 100 58 100 12 0 164 63 206 85 31 17 39 79 16 123-8 16-18 43-21 60s-10 43-15 57c-21 55-58 244-64 325-24 320-42 413-97 495-61 91-148 149-279 186-93 27-148 24-238-12-148-59-174-74-214-119-81-91-113-209-128-464-10-184-43-355-92-484-20-53-34-163-20-160 4 1 32-10 62-24 31-14 73-31 93-37 20-7 39-17 42-22 4-5 14-9 24-9s28-11 41-25c30-32 39-127 20-215-17-80-40-116-81-124-18-3-59-27-91-52-53-42-281-154-313-154-7 0-42 13-78 29-46 21-67 36-72 53-3 12-12 39-20 58-7 19-16 47-19 62-3 14-19 39-36 55-29 27-30 31-30 115 0 87 18 167 45 198 13 15 48 104 65 165 15 54 35 102 50 120 9 11 15 52 18 125 4 102 3 109-17 119-21 11-21 17-21 252 0 296 3 287-146 414-114 97-134 117-134 133 0 9 14 27 32 42 59 49 21 60-122 34z" transform="matrix(.1 0 0 -.1 0 400)"/></svg>