<svg height="100" preserveAspectRatio="xMidYMid meet" viewBox="0 0 100 100" width="100" xmlns="http://www.w3.org/2000/svg"><path d="m313 799c-84-26-113-61-113-135 0-30-5-63-11-73-10-14-7-33 15-93 27-76 33-118 17-118-5 0-12-11-15-25-4-14-17-30-29-34-12-5-57-25-99-45-72-33-78-39-78-66v-30h500 500v28c0 18-10 38-27 54-29 27-84 58-102 58-6 0-33 14-61 31-43 27-50 35-50 63 0 29 5 35 41 49 25 10 38 20 34 27-4 6-15 63-26 127-14 89-24 122-41 140-30 32-79 44-123 31-57-18-74-45-85-134-5-43-14-97-20-119-14-58-13-60 25-74 31-11 35-16 35-47 0-30-6-38-47-64-64-41-90-39-109 5-18 45-18 64 5 133 15 46 18 75 14 149-6 90-7 93-38 118-24 18-32 30-28 45 7 25-3 25-84-1z" transform="matrix(.1 0 0 -.1 0 100)"/></svg>