<svg version="1.0" xmlns="http://www.w3.org/2000/svg"
 width="400" height="400" viewBox="0 0 400 400"
 preserveAspectRatio="xMidYMid meet">
<g transform="translate(0.000000,400.000000) scale(0.100000,-0.100000)"
fill="#000000" stroke="none">
<path d="M1960 1220 c0 -13 -7 -20 -20 -20 -19 0 -20 -7 -20 -120 0 -113 1
-120 20 -120 18 0 20 -7 20 -60 0 -53 -2 -60 -20 -60 -18 0 -20 -7 -20 -80 0
-73 -2 -80 -20 -80 -17 0 -20 -7 -20 -40 l0 -40 120 0 120 0 0 40 c0 33 3 40
20 40 17 0 20 7 20 40 0 33 3 40 20 40 18 0 20 7 20 60 0 53 2 60 20 60 18 0
20 7 20 60 l0 60 -40 0 c-33 0 -40 3 -40 20 0 13 -7 20 -20 20 -13 0 -20 7
-20 20 0 13 -7 20 -20 20 -13 0 -20 7 -20 20 0 13 -7 20 -20 20 -13 0 -20 7
-20 20 0 13 -7 20 -20 20 -17 0 -20 7 -20 40 0 33 -3 40 -20 40 -13 0 -20 -7
-20 -20z"/>
<path d="M3440 1220 c0 -13 -7 -20 -20 -20 -13 0 -20 -7 -20 -20 0 -13 -7 -20
-20 -20 -13 0 -20 -7 -20 -20 0 -13 -7 -20 -20 -20 -13 0 -20 -7 -20 -20 0
-13 -7 -20 -20 -20 -13 0 -20 -7 -20 -20 0 -13 -7 -20 -20 -20 -19 0 -20 -7
-20 -100 0 -93 1 -100 20 -100 18 0 20 -7 20 -60 0 -53 2 -60 20 -60 17 0 20
-7 20 -40 0 -33 3 -40 20 -40 13 0 20 -7 20 -20 0 -19 7 -20 140 -20 133 0
140 -1 140 -20 0 -17 7 -20 40 -20 33 0 40 -3 40 -20 0 -13 7 -20 20 -20 13 0
20 -7 20 -20 0 -13 7 -20 20 -20 17 0 20 -7 20 -40 0 -33 3 -40 20 -40 13 0
20 -7 20 -20 0 -18 7 -20 80 -20 l80 0 0 220 c0 213 -1 220 -20 220 -13 0 -20
7 -20 20 0 18 -7 20 -60 20 -53 0 -60 2 -60 20 0 13 -7 20 -20 20 -17 0 -20 7
-20 40 0 33 -3 40 -20 40 -17 0 -20 7 -20 40 0 33 -3 40 -20 40 -13 0 -20 7
-20 20 0 13 7 20 20 20 13 0 20 7 20 20 0 13 -7 20 -20 20 -13 0 -20 -7 -20
-20 0 -13 -7 -20 -20 -20 -13 0 -20 7 -20 20 0 13 -7 20 -20 20 -13 0 -20 -7
-20 -20 0 -13 -7 -20 -20 -20 -13 0 -20 7 -20 20 0 13 -7 20 -20 20 -13 0 -20
7 -20 20 0 13 -7 20 -20 20 -13 0 -20 7 -20 20 0 13 -7 20 -20 20 -13 0 -20 7
-20 20 0 13 -7 20 -20 20 -13 0 -20 -7 -20 -20z"/>
<path d="M1200 500 c0 -17 -7 -20 -40 -20 -33 0 -40 -3 -40 -20 0 -13 7 -20
20 -20 17 0 20 -7 20 -40 0 -33 -3 -40 -20 -40 -13 0 -20 7 -20 20 0 13 -7 20
-20 20 -13 0 -20 -7 -20 -20 0 -13 -7 -20 -20 -20 -17 0 -20 -7 -20 -40 0 -33
3 -40 20 -40 17 0 20 7 20 40 0 33 3 40 20 40 18 0 20 -7 20 -60 0 -53 -2 -60
-20 -60 -13 0 -20 -7 -20 -20 0 -13 7 -20 20 -20 13 0 20 -7 20 -20 0 -13 7
-20 20 -20 13 0 20 -7 20 -20 0 -13 7 -20 20 -20 13 0 20 7 20 20 0 13 7 20
20 20 13 0 20 7 20 20 0 13 7 20 20 20 13 0 20 7 20 20 0 17 7 20 40 20 33 0
40 3 40 20 0 13 7 20 20 20 13 0 20 7 20 20 0 13 -7 20 -20 20 -17 0 -20 7
-20 40 0 33 -3 40 -20 40 -17 0 -20 7 -20 40 l0 40 -40 0 c-33 0 -40 3 -40 20
0 13 -7 20 -20 20 -13 0 -20 -7 -20 -20z"/>
<path d="M480 380 c0 -53 -2 -60 -20 -60 -13 0 -20 -7 -20 -20 0 -18 -7 -20
-60 -20 -53 0 -60 -2 -60 -20 0 -17 7 -20 40 -20 33 0 40 -3 40 -20 0 -13 -7
-20 -20 -20 -13 0 -20 -7 -20 -20 0 -13 7 -20 20 -20 13 0 20 -7 20 -20 0 -13
-7 -20 -20 -20 -18 0 -20 -7 -20 -60 0 -53 2 -60 20 -60 17 0 20 7 20 40 0 33
3 40 20 40 17 0 20 -7 20 -40 l0 -40 200 0 c193 0 200 1 200 20 0 13 -7 20
-20 20 -13 0 -20 7 -20 20 0 13 -7 20 -20 20 -13 0 -20 7 -20 20 0 13 -7 20
-20 20 -13 0 -20 7 -20 20 0 13 -7 20 -20 20 -17 0 -20 7 -20 40 0 33 -3 40
-20 40 -13 0 -20 7 -20 20 0 13 -7 20 -20 20 -13 0 -20 7 -20 20 0 13 -7 20
-20 20 -13 0 -20 7 -20 20 0 13 -7 20 -20 20 -17 0 -20 7 -20 40 0 33 -3 40
-20 40 -18 0 -20 -7 -20 -60z"/>
</g>
</svg>
