<svg height="144" viewBox="0 0 48 48" width="144" xmlns="http://www.w3.org/2000/svg"><path d="m43.609375 20.082031h-1.609375v-.082031h-18v8h11.304688c-1.652344 4.65625-6.082032 8-11.304688 8-6.628906 0-12-5.371094-12-12s5.371094-12 12-12c3.058594 0 5.84375 1.152344 7.960938 3.039063l5.65625-5.65625c-3.570313-3.328125-8.347657-5.382813-13.617188-5.382813-11.046875 0-20 8.953125-20 20s8.953125 20 20 20 20-8.953125 20-20c0-1.339844-.136719-2.648437-.390625-3.917969z" fill="#ffc107"/><path d="m6.304688 14.691406 6.574218 4.820313c1.777344-4.402344 6.082032-7.511719 11.121094-7.511719 3.058594 0 5.84375 1.152344 7.960938 3.039063l5.65625-5.65625c-3.570313-3.328125-8.347657-5.382813-13.617188-5.382813-7.683594 0-14.34375 4.335938-17.695312 10.691406z" fill="#ff3d00"/><path d="m24 44c5.164063 0 9.859375-1.976562 13.410156-5.191406l-6.191406-5.238281c-2.007812 1.519531-4.503906 2.429687-7.21875 2.429687-5.203125 0-9.617187-3.316406-11.28125-7.945312l-6.523437 5.023437c3.308593 6.476563 10.03125 10.921875 17.804687 10.921875z" fill="#4caf50"/><path d="m43.609375 20.082031h-1.609375v-.082031h-18v8h11.304688c-.792969 2.238281-2.234375 4.164063-4.089844 5.570313h.003906l6.191406 5.238281c-.4375.394531 6.589844-4.808594 6.589844-14.808594 0-1.339844-.136719-2.648437-.390625-3.917969z" fill="#1976d2"/></svg>