<svg height="144" viewBox="0 0 48 48" width="144" xmlns="http://www.w3.org/2000/svg"><path d="m22.808594 24.511719-3.488281 12.078125c-3.03125-2.054688-6.328125-3.746094-13.320313-.832031l3.410156-11.945313.039063-.019531c6.964844-2.886719 10.335937-1.347656 13.359375.71875z" fill="#03a9f4"/><path d="m24.632813 25.679688-3.445313 11.941406c3.027344 2.070312 6.382813 3.71875 13.363281.808594l3.324219-11.644532c-7.113281 2.453125-10.214844.945313-13.242187-1.105468z" fill="#ffc107"/><path d="m23.386719 22.335938 3.441406-11.964844c-3.027344-2.058594-6.386719-3.714844-13.375-.796875l-3.441406 12.015625c2.773437-1.152344 4.96875-1.683594 6.804687-1.664063 2.789063.015625 4.746094 1.175782 6.570313 2.410157z" fill="#ff5722"/><path d="m28.644531 11.632813-3.441406 12.03125c3.019531 2.0625 6.667969 3.75 13.359375.738281l3.4375-11.988281c-6.980469 2.902343-10.335937 1.273437-13.355469-.78125z" fill="#7cb342"/></svg>