<svg height="144" viewBox="0 0 48 48" width="144" xmlns="http://www.w3.org/2000/svg"><path d="m42 12.429688c-1.324219.585937-2.746094.976562-4.246094 1.160156 1.523438-.90625 2.699219-2.351563 3.25-4.058594-1.429687.839844-3.011718 1.453125-4.691406 1.777344-1.34375-1.425781-3.261719-2.308594-5.386719-2.308594-4.078125 0-7.386718 3.277344-7.386718 7.320313 0 .570312.066406 1.128906.191406 1.667968-6.136719-.304687-11.582031-3.222656-15.222656-7.652343-.640625 1.082031-1 2.347656-1 3.6875 0 2.539062 1.300781 4.777343 3.285156 6.09375-1.210938-.035157-2.351563-.375-3.347656-.914063v.085938c0 3.550781 2.546875 6.507812 5.921875 7.183593-.617188.167969-1.269532.261719-1.941407.261719-.476562 0-.941406-.054687-1.390625-.136719.9375 2.902344 3.664063 5.023438 6.898438 5.085938-2.53125 1.960937-5.714844 3.136719-9.175781 3.136719-.597657 0-1.183594-.035157-1.761719-.105469 3.273437 2.070312 7.15625 3.285156 11.324219 3.285156 13.585937 0 21.019531-11.15625 21.019531-20.835937 0-.316407-.011719-.632813-.027344-.941407 1.449219-1.027343 2.699219-2.316406 3.6875-3.792968" fill="#03a9f4"/></svg>