<svg enable-background="new 0 0 40 40" height="100" viewBox="0 0 40 40" width="100" xmlns="http://www.w3.org/2000/svg"><path d="m4.511 38.5c.263-6.11 5.315-11 11.489-11h8c6.174 0 11.227 4.89 11.489 11z" fill="#8bb7f0"/><path d="m24 28c5.729 0 10.448 4.401 10.955 10h-29.91c.507-5.599 5.226-10 10.955-10zm0-1h-8c-6.627 0-12 5.373-12 12h32c0-6.627-5.373-12-12-12z" fill="#4e7ab5"/><path d="m20 30.5c-3.219 0-4.309-2.102-4.5-2.537v-5.463h9v5.464c-.188.43-1.277 2.536-4.5 2.536z" fill="#deb974"/><path d="m24 23v4.854c-.241.489-1.262 2.146-4 2.146-2.73 0-3.756-1.657-4-2.147v-4.853zm1-1h-10v6.062s1.066 2.938 5 2.938 5-2.938 5-2.938z" fill="#967a44"/><path d="m27.143 19.214c-1.3 0-2.356-1.057-2.356-2.356s1.057-2.357 2.356-2.357c1.963 0 2.357.537 2.357 1.404 0 1.413-1.165 3.309-2.357 3.309zm-14.286 0c-1.192 0-2.357-1.896-2.357-3.31 0-.867.395-1.404 2.357-1.404 1.3 0 2.356 1.058 2.356 2.357s-1.056 2.357-2.356 2.357z" fill="#deb974"/><path d="m27.143 15c1.857 0 1.857.481 1.857.905 0 1.234-1.041 2.81-1.857 2.81-1.024 0-1.857-.833-1.857-1.857s.833-1.858 1.857-1.858m-14.286 0c1.024 0 1.857.833 1.857 1.857s-.833 1.857-1.857 1.857c-.816 0-1.857-1.575-1.857-2.81 0-.423 0-.904 1.857-.904m14.286-1c-1.578 0-2.857 1.279-2.857 2.857s1.279 2.857 2.857 2.857 2.857-2.232 2.857-3.81c0-1.577-1.279-1.904-2.857-1.904zm-14.286 0c-1.578 0-2.857.327-2.857 1.905s1.279 3.81 2.857 3.81 2.857-1.279 2.857-2.857-1.279-2.858-2.857-2.858z" fill="#967a44"/><path d="m20 26.5c-.604 0-1.172-.218-1.642-.631l-.091-.079-.116-.029c-3.327-.845-5.651-3.83-5.651-7.261v-9.299c0-1.826 1.486-3.312 3.312-3.312h8.375c1.826 0 3.313 1.486 3.313 3.312v9.299c0 3.431-2.324 6.416-5.651 7.261l-.116.029-.091.079c-.47.413-1.038.631-1.642.631z" fill="#f5ce85"/><path d="m24.187 6.389c1.551 0 2.813 1.262 2.813 2.813v9.298c0 3.201-2.169 5.987-5.275 6.776l-.233.059-.181.159c-.263.231-.703.506-1.311.506s-1.048-.275-1.311-.506l-.181-.159-.233-.059c-3.106-.789-5.275-3.575-5.275-6.776v-9.298c0-1.551 1.262-2.813 2.813-2.813zm0-1h-8.375c-2.105 0-3.812 1.707-3.812 3.813v9.298c0 3.737 2.566 6.866 6.029 7.745.528.464 1.213.755 1.971.755s1.443-.291 1.971-.755c3.463-.879 6.029-4.008 6.029-7.745v-9.298c0-2.106-1.707-3.813-3.813-3.813z" fill="#967a44"/><path d="m27.5 17.5v-3.5c0-3.635-3.033-5.582-3.163-5.663l-.398-.25-.274.384c-.085.118-2.119 2.886-6.514 2.886-1.15 0-4.65 0-4.65 3.644v2.5h-.179c-.436-.981-1.821-4.332-1.821-7.188 0-5.271 3.617-8.812 9-8.812 3.839 0 4.992 2.585 5.039 2.695l.131.303.329.001c1.671 0 4.5 1.161 4.5 5.515 0 2.621-1.407 6.394-1.838 7.485z" fill="#a6714e"/><path d="m19.5 2c3.483 0 4.538 2.297 4.577 2.385l.257.615h.666c1.845 0 4 1.313 4 5.015 0 1.536-.507 3.498-1 5.043v-1.058c0-3.909-3.258-5.999-3.397-6.086l-.801-.504-.547.772c-.019.027-1.941 2.674-6.105 2.674-3.417.001-5.15 1.395-5.15 4.144v.314c-.491-1.422-1-3.305-1-5.003 0-4.971 3.416-8.311 8.5-8.311m0-1c-5.819 0-9.5 3.981-9.5 9.311 0 3.531 2 7.689 2 7.689h1s0-2.029 0-3c0-2.668 2.024-3.143 4.15-3.143 4.73 0 6.922-3.096 6.922-3.096s2.928 1.838 2.928 5.239v4h1s2-4.768 2-7.985c0-4.517-2.877-6.015-5-6.015 0 0-1.253-3-5.5-3z" fill="#7a4f34"/></svg>